G04 #@! TF.GenerationSoftware,KiCad,Pcbnew,(5.1.9-0-10_14)*
G04 #@! TF.CreationDate,2021-05-14T14:16:07+02:00*
G04 #@! TF.ProjectId,PreAmp_SMPS_Filter,50726541-6d70-45f5-934d-50535f46696c,1.0*
G04 #@! TF.SameCoordinates,Original*
G04 #@! TF.FileFunction,Copper,L1,Top*
G04 #@! TF.FilePolarity,Positive*
%FSLAX46Y46*%
G04 Gerber Fmt 4.6, Leading zero omitted, Abs format (unit mm)*
G04 Created by KiCad (PCBNEW (5.1.9-0-10_14)) date 2021-05-14 14:16:07*
%MOMM*%
%LPD*%
G01*
G04 APERTURE LIST*
G04 #@! TA.AperFunction,ComponentPad*
%ADD10C,2.000000*%
G04 #@! TD*
G04 #@! TA.AperFunction,ComponentPad*
%ADD11R,2.000000X2.000000*%
G04 #@! TD*
G04 #@! TA.AperFunction,ComponentPad*
%ADD12C,6.400000*%
G04 #@! TD*
G04 #@! TA.AperFunction,ComponentPad*
%ADD13C,0.800000*%
G04 #@! TD*
G04 #@! TA.AperFunction,ComponentPad*
%ADD14C,2.600000*%
G04 #@! TD*
G04 #@! TA.AperFunction,ComponentPad*
%ADD15R,2.600000X2.600000*%
G04 #@! TD*
G04 #@! TA.AperFunction,ComponentPad*
%ADD16R,1.575000X1.575000*%
G04 #@! TD*
G04 #@! TA.AperFunction,ComponentPad*
%ADD17C,1.575000*%
G04 #@! TD*
G04 #@! TA.AperFunction,ComponentPad*
%ADD18C,3.000000*%
G04 #@! TD*
G04 #@! TA.AperFunction,ComponentPad*
%ADD19O,3.000000X3.000000*%
G04 #@! TD*
G04 #@! TA.AperFunction,ComponentPad*
%ADD20C,1.600000*%
G04 #@! TD*
G04 #@! TA.AperFunction,ComponentPad*
%ADD21O,1.600000X1.600000*%
G04 #@! TD*
G04 #@! TA.AperFunction,ViaPad*
%ADD22C,1.600000*%
G04 #@! TD*
G04 #@! TA.AperFunction,Conductor*
%ADD23C,2.000000*%
G04 #@! TD*
G04 APERTURE END LIST*
D10*
X81280000Y-71200000D03*
D11*
X81280000Y-76200000D03*
D10*
X81280000Y-59770000D03*
D11*
X81280000Y-64770000D03*
D12*
X110490000Y-38100000D03*
D13*
X112890000Y-38100000D03*
X112187056Y-39797056D03*
X110490000Y-40500000D03*
X108792944Y-39797056D03*
X108090000Y-38100000D03*
X108792944Y-36402944D03*
X110490000Y-35700000D03*
X112187056Y-36402944D03*
D12*
X58420000Y-38100000D03*
D13*
X60820000Y-38100000D03*
X60117056Y-39797056D03*
X58420000Y-40500000D03*
X56722944Y-39797056D03*
X56020000Y-38100000D03*
X56722944Y-36402944D03*
X58420000Y-35700000D03*
X60117056Y-36402944D03*
D12*
X58420000Y-78740000D03*
D13*
X60820000Y-78740000D03*
X60117056Y-80437056D03*
X58420000Y-81140000D03*
X56722944Y-80437056D03*
X56020000Y-78740000D03*
X56722944Y-77042944D03*
X58420000Y-76340000D03*
X60117056Y-77042944D03*
X112187056Y-77042944D03*
X110490000Y-76340000D03*
X108792944Y-77042944D03*
X108090000Y-78740000D03*
X108792944Y-80437056D03*
X110490000Y-81140000D03*
X112187056Y-80437056D03*
X112890000Y-78740000D03*
D12*
X110490000Y-78740000D03*
D14*
X104060000Y-49530000D03*
X99060000Y-49530000D03*
D15*
X63500000Y-49530000D03*
D14*
X63500000Y-54530000D03*
D16*
X76200000Y-58420000D03*
D17*
X76200000Y-77520000D03*
D14*
X63500000Y-69770000D03*
D15*
X63500000Y-64770000D03*
D14*
X88900000Y-49530000D03*
X93900000Y-49530000D03*
D18*
X85090000Y-39370000D03*
D19*
X73690000Y-39370000D03*
D20*
X73660000Y-46990000D03*
D21*
X83820000Y-46990000D03*
D19*
X92740000Y-39370000D03*
D18*
X104140000Y-39370000D03*
D21*
X83820000Y-53340000D03*
D20*
X73660000Y-53340000D03*
D22*
X104140000Y-67310000D03*
D23*
X92740000Y-48370000D02*
X93900000Y-49530000D01*
X92740000Y-39370000D02*
X92740000Y-48370000D01*
X85090000Y-45720000D02*
X83820000Y-46990000D01*
X85090000Y-39370000D02*
X85090000Y-45720000D01*
X85090000Y-45720000D02*
X88900000Y-49530000D01*
X95250000Y-53340000D02*
X83820000Y-53340000D01*
X104140000Y-44450000D02*
X95250000Y-53340000D01*
X104140000Y-39370000D02*
X104140000Y-44450000D01*
X74850000Y-69770000D02*
X81280000Y-76200000D01*
X73580000Y-69770000D02*
X74850000Y-69770000D01*
X73660000Y-69690000D02*
X73580000Y-69770000D01*
X63500000Y-69770000D02*
X73580000Y-69770000D01*
X73660000Y-53340000D02*
X73660000Y-64770000D01*
X73660000Y-64770000D02*
X76200000Y-67310000D01*
X99060000Y-67310000D02*
X99060000Y-67310000D01*
X76200000Y-67310000D02*
X104140000Y-67310000D01*
X63500000Y-49530000D02*
X63500000Y-43180000D01*
X67310000Y-39370000D02*
X73690000Y-39370000D01*
X63500000Y-43180000D02*
X67310000Y-39370000D01*
M02*
