%FSLAX45Y45*%
G04 Gerber Fmt 4.5, Leading zero omitted, Abs format (unit mm)*
G04 Created by KiCad (PCBNEW (5.1.9-0-10_14)) date 2021-05-14 14:17:34*
%MOMM*%
%LPD*%
G01*
G04 APERTURE LIST*
%TA.AperFunction,Profile*%
%ADD10C,0.050000*%
%TD*%
%ADD11C,0.200000*%
%ADD12C,0.300000*%
G04 APERTURE END LIST*
D10*
X5334000Y-8382000D02*
X5334000Y-3302000D01*
X11557000Y-8382000D02*
X5334000Y-8382000D01*
X11557000Y-3302000D02*
X11557000Y-8382000D01*
X5334000Y-3302000D02*
X11557000Y-3302000D01*
D11*
X5577000Y-3785000D02*
X5627000Y-3835000D01*
X5627000Y-3785000D02*
X5577000Y-3835000D01*
X5577000Y-7849000D02*
X5627000Y-7899000D01*
X5627000Y-7849000D02*
X5577000Y-7899000D01*
X5647294Y-3615294D02*
X5697294Y-3665294D01*
X5697294Y-3615294D02*
X5647294Y-3665294D01*
X5647294Y-3954706D02*
X5697294Y-4004706D01*
X5697294Y-3954706D02*
X5647294Y-4004706D01*
X5647294Y-7679294D02*
X5697294Y-7729294D01*
X5697294Y-7679294D02*
X5647294Y-7729294D01*
X5647294Y-8018706D02*
X5697294Y-8068706D01*
X5697294Y-8018706D02*
X5647294Y-8068706D01*
X5817000Y-3545000D02*
X5867000Y-3595000D01*
X5867000Y-3545000D02*
X5817000Y-3595000D01*
X5817000Y-4025000D02*
X5867000Y-4075000D01*
X5867000Y-4025000D02*
X5817000Y-4075000D01*
X5817000Y-7609000D02*
X5867000Y-7659000D01*
X5867000Y-7609000D02*
X5817000Y-7659000D01*
X5817000Y-8089000D02*
X5867000Y-8139000D01*
X5867000Y-8089000D02*
X5817000Y-8139000D01*
X5986706Y-3615294D02*
X6036706Y-3665294D01*
X6036706Y-3615294D02*
X5986706Y-3665294D01*
X5986706Y-3954706D02*
X6036706Y-4004706D01*
X6036706Y-3954706D02*
X5986706Y-4004706D01*
X5986706Y-7679294D02*
X6036706Y-7729294D01*
X6036706Y-7679294D02*
X5986706Y-7729294D01*
X5986706Y-8018706D02*
X6036706Y-8068706D01*
X6036706Y-8018706D02*
X5986706Y-8068706D01*
X6057000Y-3785000D02*
X6107000Y-3835000D01*
X6107000Y-3785000D02*
X6057000Y-3835000D01*
X6057000Y-7849000D02*
X6107000Y-7899000D01*
X6107000Y-7849000D02*
X6057000Y-7899000D01*
X10784000Y-3785000D02*
X10834000Y-3835000D01*
X10834000Y-3785000D02*
X10784000Y-3835000D01*
X10784000Y-7849000D02*
X10834000Y-7899000D01*
X10834000Y-7849000D02*
X10784000Y-7899000D01*
X10854294Y-3615294D02*
X10904294Y-3665294D01*
X10904294Y-3615294D02*
X10854294Y-3665294D01*
X10854294Y-3954706D02*
X10904294Y-4004706D01*
X10904294Y-3954706D02*
X10854294Y-4004706D01*
X10854294Y-7679294D02*
X10904294Y-7729294D01*
X10904294Y-7679294D02*
X10854294Y-7729294D01*
X10854294Y-8018706D02*
X10904294Y-8068706D01*
X10904294Y-8018706D02*
X10854294Y-8068706D01*
X11024000Y-3545000D02*
X11074000Y-3595000D01*
X11074000Y-3545000D02*
X11024000Y-3595000D01*
X11024000Y-4025000D02*
X11074000Y-4075000D01*
X11074000Y-4025000D02*
X11024000Y-4075000D01*
X11024000Y-7609000D02*
X11074000Y-7659000D01*
X11074000Y-7609000D02*
X11024000Y-7659000D01*
X11024000Y-8089000D02*
X11074000Y-8139000D01*
X11074000Y-8089000D02*
X11024000Y-8139000D01*
X11193706Y-3615294D02*
X11243706Y-3665294D01*
X11243706Y-3615294D02*
X11193706Y-3665294D01*
X11193706Y-3954706D02*
X11243706Y-4004706D01*
X11243706Y-3954706D02*
X11193706Y-4004706D01*
X11193706Y-7679294D02*
X11243706Y-7729294D01*
X11243706Y-7679294D02*
X11193706Y-7729294D01*
X11193706Y-8018706D02*
X11243706Y-8068706D01*
X11243706Y-8018706D02*
X11193706Y-8068706D01*
X11264000Y-3785000D02*
X11314000Y-3835000D01*
X11314000Y-3785000D02*
X11264000Y-3835000D01*
X11264000Y-7849000D02*
X11314000Y-7899000D01*
X11314000Y-7849000D02*
X11264000Y-7899000D01*
X7406000Y-4699000D02*
G75*
G03*
X7406000Y-4699000I-40000J0D01*
G01*
X7406000Y-5334000D02*
G75*
G03*
X7406000Y-5334000I-40000J0D01*
G01*
X8422000Y-4699000D02*
G75*
G03*
X8422000Y-4699000I-40000J0D01*
G01*
X8422000Y-5334000D02*
G75*
G03*
X8422000Y-5334000I-40000J0D01*
G01*
X8128000Y-5927000D02*
X8128000Y-6027000D01*
X8078000Y-5977000D02*
X8178000Y-5977000D01*
X8128000Y-6427000D02*
X8128000Y-6527000D01*
X8078000Y-6477000D02*
X8178000Y-6477000D01*
X8128000Y-7070000D02*
X8128000Y-7170000D01*
X8078000Y-7120000D02*
X8178000Y-7120000D01*
X8128000Y-7570000D02*
X8128000Y-7670000D01*
X8078000Y-7620000D02*
X8178000Y-7620000D01*
X10414000Y-6681000D02*
X10414000Y-6781000D01*
X10364000Y-6731000D02*
X10464000Y-6731000D01*
X7657123Y-5879123D02*
X7657123Y-5804876D01*
X7582876Y-5804876D01*
X7582876Y-5879123D01*
X7657123Y-5879123D01*
X7657123Y-7789123D02*
X7657123Y-7714876D01*
X7582876Y-7714876D01*
X7582876Y-7789123D01*
X7657123Y-7789123D01*
X6350000Y-5018000D02*
X6415000Y-4953000D01*
X6350000Y-4888000D01*
X6285000Y-4953000D01*
X6350000Y-5018000D01*
X6350000Y-5518000D02*
X6415000Y-5453000D01*
X6350000Y-5388000D01*
X6285000Y-5453000D01*
X6350000Y-5518000D01*
X6350000Y-6542000D02*
X6415000Y-6477000D01*
X6350000Y-6412000D01*
X6285000Y-6477000D01*
X6350000Y-6542000D01*
X6350000Y-7042000D02*
X6415000Y-6977000D01*
X6350000Y-6912000D01*
X6285000Y-6977000D01*
X6350000Y-7042000D01*
X8890000Y-5018000D02*
X8955000Y-4953000D01*
X8890000Y-4888000D01*
X8825000Y-4953000D01*
X8890000Y-5018000D01*
X9390000Y-5018000D02*
X9455000Y-4953000D01*
X9390000Y-4888000D01*
X9325000Y-4953000D01*
X9390000Y-5018000D01*
X9906000Y-5018000D02*
X9971000Y-4953000D01*
X9906000Y-4888000D01*
X9841000Y-4953000D01*
X9906000Y-5018000D01*
X10406000Y-5018000D02*
X10471000Y-4953000D01*
X10406000Y-4888000D01*
X10341000Y-4953000D01*
X10406000Y-5018000D01*
X7294000Y-3862000D02*
X7444000Y-4012000D01*
X7444000Y-3862000D02*
X7294000Y-4012000D01*
X7444000Y-3937000D02*
G75*
G03*
X7444000Y-3937000I-75000J0D01*
G01*
X8434000Y-3862000D02*
X8584000Y-4012000D01*
X8584000Y-3862000D02*
X8434000Y-4012000D01*
X8584000Y-3937000D02*
G75*
G03*
X8584000Y-3937000I-75000J0D01*
G01*
X9199000Y-3862000D02*
X9349000Y-4012000D01*
X9349000Y-3862000D02*
X9199000Y-4012000D01*
X9349000Y-3937000D02*
G75*
G03*
X9349000Y-3937000I-75000J0D01*
G01*
X10339000Y-3862000D02*
X10489000Y-4012000D01*
X10489000Y-3862000D02*
X10339000Y-4012000D01*
X10489000Y-3937000D02*
G75*
G03*
X10489000Y-3937000I-75000J0D01*
G01*
X5682000Y-3650000D02*
X6002000Y-3970000D01*
X6002000Y-3650000D02*
X5682000Y-3970000D01*
X5842000Y-3650000D02*
X5842000Y-3970000D01*
X5682000Y-3810000D02*
X6002000Y-3810000D01*
X5682000Y-7714000D02*
X6002000Y-8034000D01*
X6002000Y-7714000D02*
X5682000Y-8034000D01*
X5842000Y-7714000D02*
X5842000Y-8034000D01*
X5682000Y-7874000D02*
X6002000Y-7874000D01*
X10889000Y-3650000D02*
X11209000Y-3970000D01*
X11209000Y-3650000D02*
X10889000Y-3970000D01*
X11049000Y-3650000D02*
X11049000Y-3970000D01*
X10889000Y-3810000D02*
X11209000Y-3810000D01*
X10889000Y-7714000D02*
X11209000Y-8034000D01*
X11209000Y-7714000D02*
X10889000Y-8034000D01*
X11049000Y-7714000D02*
X11049000Y-8034000D01*
X10889000Y-7874000D02*
X11209000Y-7874000D01*
D12*
X5617928Y-8850214D02*
X5617928Y-8550214D01*
X5689357Y-8550214D01*
X5732214Y-8564500D01*
X5760786Y-8593072D01*
X5775071Y-8621643D01*
X5789357Y-8678786D01*
X5789357Y-8721643D01*
X5775071Y-8778786D01*
X5760786Y-8807357D01*
X5732214Y-8835929D01*
X5689357Y-8850214D01*
X5617928Y-8850214D01*
X5917928Y-8850214D02*
X5917928Y-8650214D01*
X5917928Y-8707357D02*
X5932214Y-8678786D01*
X5946500Y-8664500D01*
X5975071Y-8650214D01*
X6003643Y-8650214D01*
X6103643Y-8850214D02*
X6103643Y-8650214D01*
X6103643Y-8550214D02*
X6089357Y-8564500D01*
X6103643Y-8578786D01*
X6117928Y-8564500D01*
X6103643Y-8550214D01*
X6103643Y-8578786D01*
X6289357Y-8850214D02*
X6260786Y-8835929D01*
X6246500Y-8807357D01*
X6246500Y-8550214D01*
X6446500Y-8850214D02*
X6417928Y-8835929D01*
X6403643Y-8807357D01*
X6403643Y-8550214D01*
X6789357Y-8850214D02*
X6789357Y-8550214D01*
X6889357Y-8764500D01*
X6989357Y-8550214D01*
X6989357Y-8850214D01*
X7260786Y-8850214D02*
X7260786Y-8693072D01*
X7246500Y-8664500D01*
X7217928Y-8650214D01*
X7160786Y-8650214D01*
X7132214Y-8664500D01*
X7260786Y-8835929D02*
X7232214Y-8850214D01*
X7160786Y-8850214D01*
X7132214Y-8835929D01*
X7117928Y-8807357D01*
X7117928Y-8778786D01*
X7132214Y-8750214D01*
X7160786Y-8735929D01*
X7232214Y-8735929D01*
X7260786Y-8721643D01*
X7403643Y-8650214D02*
X7403643Y-8950214D01*
X7403643Y-8664500D02*
X7432214Y-8650214D01*
X7489357Y-8650214D01*
X7517928Y-8664500D01*
X7532214Y-8678786D01*
X7546500Y-8707357D01*
X7546500Y-8793072D01*
X7532214Y-8821643D01*
X7517928Y-8835929D01*
X7489357Y-8850214D01*
X7432214Y-8850214D01*
X7403643Y-8835929D01*
X7675071Y-8821643D02*
X7689357Y-8835929D01*
X7675071Y-8850214D01*
X7660786Y-8835929D01*
X7675071Y-8821643D01*
X7675071Y-8850214D01*
X7675071Y-8664500D02*
X7689357Y-8678786D01*
X7675071Y-8693072D01*
X7660786Y-8678786D01*
X7675071Y-8664500D01*
X7675071Y-8693072D01*
X5281500Y-9319500D02*
X5331500Y-9369500D01*
X5331500Y-9319500D02*
X5281500Y-9369500D01*
X5675071Y-9180214D02*
X5703643Y-9180214D01*
X5732214Y-9194500D01*
X5746500Y-9208786D01*
X5760786Y-9237357D01*
X5775071Y-9294500D01*
X5775071Y-9365929D01*
X5760786Y-9423072D01*
X5746500Y-9451643D01*
X5732214Y-9465929D01*
X5703643Y-9480214D01*
X5675071Y-9480214D01*
X5646500Y-9465929D01*
X5632214Y-9451643D01*
X5617928Y-9423072D01*
X5603643Y-9365929D01*
X5603643Y-9294500D01*
X5617928Y-9237357D01*
X5632214Y-9208786D01*
X5646500Y-9194500D01*
X5675071Y-9180214D01*
X5903643Y-9451643D02*
X5917928Y-9465929D01*
X5903643Y-9480214D01*
X5889357Y-9465929D01*
X5903643Y-9451643D01*
X5903643Y-9480214D01*
X6189357Y-9180214D02*
X6046500Y-9180214D01*
X6032214Y-9323072D01*
X6046500Y-9308786D01*
X6075071Y-9294500D01*
X6146500Y-9294500D01*
X6175071Y-9308786D01*
X6189357Y-9323072D01*
X6203643Y-9351643D01*
X6203643Y-9423072D01*
X6189357Y-9451643D01*
X6175071Y-9465929D01*
X6146500Y-9480214D01*
X6075071Y-9480214D01*
X6046500Y-9465929D01*
X6032214Y-9451643D01*
X6389357Y-9180214D02*
X6417928Y-9180214D01*
X6446500Y-9194500D01*
X6460786Y-9208786D01*
X6475071Y-9237357D01*
X6489357Y-9294500D01*
X6489357Y-9365929D01*
X6475071Y-9423072D01*
X6460786Y-9451643D01*
X6446500Y-9465929D01*
X6417928Y-9480214D01*
X6389357Y-9480214D01*
X6360786Y-9465929D01*
X6346500Y-9451643D01*
X6332214Y-9423072D01*
X6317928Y-9365929D01*
X6317928Y-9294500D01*
X6332214Y-9237357D01*
X6346500Y-9208786D01*
X6360786Y-9194500D01*
X6389357Y-9180214D01*
X6617928Y-9480214D02*
X6617928Y-9280214D01*
X6617928Y-9308786D02*
X6632214Y-9294500D01*
X6660786Y-9280214D01*
X6703643Y-9280214D01*
X6732214Y-9294500D01*
X6746500Y-9323072D01*
X6746500Y-9480214D01*
X6746500Y-9323072D02*
X6760786Y-9294500D01*
X6789357Y-9280214D01*
X6832214Y-9280214D01*
X6860786Y-9294500D01*
X6875071Y-9323072D01*
X6875071Y-9480214D01*
X7017928Y-9480214D02*
X7017928Y-9280214D01*
X7017928Y-9308786D02*
X7032214Y-9294500D01*
X7060786Y-9280214D01*
X7103643Y-9280214D01*
X7132214Y-9294500D01*
X7146500Y-9323072D01*
X7146500Y-9480214D01*
X7146500Y-9323072D02*
X7160786Y-9294500D01*
X7189357Y-9280214D01*
X7232214Y-9280214D01*
X7260786Y-9294500D01*
X7275071Y-9323072D01*
X7275071Y-9480214D01*
X7860786Y-9165929D02*
X7603643Y-9551643D01*
X8246500Y-9180214D02*
X8275071Y-9180214D01*
X8303643Y-9194500D01*
X8317928Y-9208786D01*
X8332214Y-9237357D01*
X8346500Y-9294500D01*
X8346500Y-9365929D01*
X8332214Y-9423072D01*
X8317928Y-9451643D01*
X8303643Y-9465929D01*
X8275071Y-9480214D01*
X8246500Y-9480214D01*
X8217928Y-9465929D01*
X8203643Y-9451643D01*
X8189357Y-9423072D01*
X8175071Y-9365929D01*
X8175071Y-9294500D01*
X8189357Y-9237357D01*
X8203643Y-9208786D01*
X8217928Y-9194500D01*
X8246500Y-9180214D01*
X8475071Y-9451643D02*
X8489357Y-9465929D01*
X8475071Y-9480214D01*
X8460786Y-9465929D01*
X8475071Y-9451643D01*
X8475071Y-9480214D01*
X8675071Y-9180214D02*
X8703643Y-9180214D01*
X8732214Y-9194500D01*
X8746500Y-9208786D01*
X8760786Y-9237357D01*
X8775071Y-9294500D01*
X8775071Y-9365929D01*
X8760786Y-9423072D01*
X8746500Y-9451643D01*
X8732214Y-9465929D01*
X8703643Y-9480214D01*
X8675071Y-9480214D01*
X8646500Y-9465929D01*
X8632214Y-9451643D01*
X8617928Y-9423072D01*
X8603643Y-9365929D01*
X8603643Y-9294500D01*
X8617928Y-9237357D01*
X8632214Y-9208786D01*
X8646500Y-9194500D01*
X8675071Y-9180214D01*
X8889357Y-9208786D02*
X8903643Y-9194500D01*
X8932214Y-9180214D01*
X9003643Y-9180214D01*
X9032214Y-9194500D01*
X9046500Y-9208786D01*
X9060786Y-9237357D01*
X9060786Y-9265929D01*
X9046500Y-9308786D01*
X8875071Y-9480214D01*
X9060786Y-9480214D01*
X9246500Y-9180214D02*
X9275071Y-9180214D01*
X9303643Y-9194500D01*
X9317928Y-9208786D01*
X9332214Y-9237357D01*
X9346500Y-9294500D01*
X9346500Y-9365929D01*
X9332214Y-9423072D01*
X9317928Y-9451643D01*
X9303643Y-9465929D01*
X9275071Y-9480214D01*
X9246500Y-9480214D01*
X9217928Y-9465929D01*
X9203643Y-9451643D01*
X9189357Y-9423072D01*
X9175071Y-9365929D01*
X9175071Y-9294500D01*
X9189357Y-9237357D01*
X9203643Y-9208786D01*
X9217928Y-9194500D01*
X9246500Y-9180214D01*
X9460786Y-9180214D02*
X9460786Y-9237357D01*
X9575071Y-9180214D02*
X9575071Y-9237357D01*
X10017928Y-9594500D02*
X10003643Y-9580214D01*
X9975071Y-9537357D01*
X9960786Y-9508786D01*
X9946500Y-9465929D01*
X9932214Y-9394500D01*
X9932214Y-9337357D01*
X9946500Y-9265929D01*
X9960786Y-9223072D01*
X9975071Y-9194500D01*
X10003643Y-9151643D01*
X10017928Y-9137357D01*
X10103643Y-9180214D02*
X10289357Y-9180214D01*
X10189357Y-9294500D01*
X10232214Y-9294500D01*
X10260786Y-9308786D01*
X10275071Y-9323072D01*
X10289357Y-9351643D01*
X10289357Y-9423072D01*
X10275071Y-9451643D01*
X10260786Y-9465929D01*
X10232214Y-9480214D01*
X10146500Y-9480214D01*
X10117928Y-9465929D01*
X10103643Y-9451643D01*
X10403643Y-9208786D02*
X10417928Y-9194500D01*
X10446500Y-9180214D01*
X10517928Y-9180214D01*
X10546500Y-9194500D01*
X10560786Y-9208786D01*
X10575071Y-9237357D01*
X10575071Y-9265929D01*
X10560786Y-9308786D01*
X10389357Y-9480214D01*
X10575071Y-9480214D01*
X10932214Y-9480214D02*
X10932214Y-9180214D01*
X11060786Y-9480214D02*
X11060786Y-9323072D01*
X11046500Y-9294500D01*
X11017928Y-9280214D01*
X10975071Y-9280214D01*
X10946500Y-9294500D01*
X10932214Y-9308786D01*
X11246500Y-9480214D02*
X11217928Y-9465929D01*
X11203643Y-9451643D01*
X11189357Y-9423072D01*
X11189357Y-9337357D01*
X11203643Y-9308786D01*
X11217928Y-9294500D01*
X11246500Y-9280214D01*
X11289357Y-9280214D01*
X11317928Y-9294500D01*
X11332214Y-9308786D01*
X11346500Y-9337357D01*
X11346500Y-9423072D01*
X11332214Y-9451643D01*
X11317928Y-9465929D01*
X11289357Y-9480214D01*
X11246500Y-9480214D01*
X11517928Y-9480214D02*
X11489357Y-9465929D01*
X11475071Y-9437357D01*
X11475071Y-9180214D01*
X11746500Y-9465929D02*
X11717928Y-9480214D01*
X11660786Y-9480214D01*
X11632214Y-9465929D01*
X11617928Y-9437357D01*
X11617928Y-9323072D01*
X11632214Y-9294500D01*
X11660786Y-9280214D01*
X11717928Y-9280214D01*
X11746500Y-9294500D01*
X11760786Y-9323072D01*
X11760786Y-9351643D01*
X11617928Y-9380214D01*
X11875071Y-9465929D02*
X11903643Y-9480214D01*
X11960786Y-9480214D01*
X11989357Y-9465929D01*
X12003643Y-9437357D01*
X12003643Y-9423072D01*
X11989357Y-9394500D01*
X11960786Y-9380214D01*
X11917928Y-9380214D01*
X11889357Y-9365929D01*
X11875071Y-9337357D01*
X11875071Y-9323072D01*
X11889357Y-9294500D01*
X11917928Y-9280214D01*
X11960786Y-9280214D01*
X11989357Y-9294500D01*
X12103643Y-9594500D02*
X12117928Y-9580214D01*
X12146500Y-9537357D01*
X12160786Y-9508786D01*
X12175071Y-9465929D01*
X12189357Y-9394500D01*
X12189357Y-9337357D01*
X12175071Y-9265929D01*
X12160786Y-9223072D01*
X12146500Y-9194500D01*
X12117928Y-9151643D01*
X12103643Y-9137357D01*
X5331500Y-9740500D02*
G75*
G03*
X5331500Y-9740500I-40000J0D01*
G01*
X5675071Y-9576214D02*
X5703643Y-9576214D01*
X5732214Y-9590500D01*
X5746500Y-9604786D01*
X5760786Y-9633357D01*
X5775071Y-9690500D01*
X5775071Y-9761929D01*
X5760786Y-9819072D01*
X5746500Y-9847643D01*
X5732214Y-9861929D01*
X5703643Y-9876214D01*
X5675071Y-9876214D01*
X5646500Y-9861929D01*
X5632214Y-9847643D01*
X5617928Y-9819072D01*
X5603643Y-9761929D01*
X5603643Y-9690500D01*
X5617928Y-9633357D01*
X5632214Y-9604786D01*
X5646500Y-9590500D01*
X5675071Y-9576214D01*
X5903643Y-9847643D02*
X5917928Y-9861929D01*
X5903643Y-9876214D01*
X5889357Y-9861929D01*
X5903643Y-9847643D01*
X5903643Y-9876214D01*
X6089357Y-9704786D02*
X6060786Y-9690500D01*
X6046500Y-9676214D01*
X6032214Y-9647643D01*
X6032214Y-9633357D01*
X6046500Y-9604786D01*
X6060786Y-9590500D01*
X6089357Y-9576214D01*
X6146500Y-9576214D01*
X6175071Y-9590500D01*
X6189357Y-9604786D01*
X6203643Y-9633357D01*
X6203643Y-9647643D01*
X6189357Y-9676214D01*
X6175071Y-9690500D01*
X6146500Y-9704786D01*
X6089357Y-9704786D01*
X6060786Y-9719072D01*
X6046500Y-9733357D01*
X6032214Y-9761929D01*
X6032214Y-9819072D01*
X6046500Y-9847643D01*
X6060786Y-9861929D01*
X6089357Y-9876214D01*
X6146500Y-9876214D01*
X6175071Y-9861929D01*
X6189357Y-9847643D01*
X6203643Y-9819072D01*
X6203643Y-9761929D01*
X6189357Y-9733357D01*
X6175071Y-9719072D01*
X6146500Y-9704786D01*
X6389357Y-9576214D02*
X6417928Y-9576214D01*
X6446500Y-9590500D01*
X6460786Y-9604786D01*
X6475071Y-9633357D01*
X6489357Y-9690500D01*
X6489357Y-9761929D01*
X6475071Y-9819072D01*
X6460786Y-9847643D01*
X6446500Y-9861929D01*
X6417928Y-9876214D01*
X6389357Y-9876214D01*
X6360786Y-9861929D01*
X6346500Y-9847643D01*
X6332214Y-9819072D01*
X6317928Y-9761929D01*
X6317928Y-9690500D01*
X6332214Y-9633357D01*
X6346500Y-9604786D01*
X6360786Y-9590500D01*
X6389357Y-9576214D01*
X6617928Y-9876214D02*
X6617928Y-9676214D01*
X6617928Y-9704786D02*
X6632214Y-9690500D01*
X6660786Y-9676214D01*
X6703643Y-9676214D01*
X6732214Y-9690500D01*
X6746500Y-9719072D01*
X6746500Y-9876214D01*
X6746500Y-9719072D02*
X6760786Y-9690500D01*
X6789357Y-9676214D01*
X6832214Y-9676214D01*
X6860786Y-9690500D01*
X6875071Y-9719072D01*
X6875071Y-9876214D01*
X7017928Y-9876214D02*
X7017928Y-9676214D01*
X7017928Y-9704786D02*
X7032214Y-9690500D01*
X7060786Y-9676214D01*
X7103643Y-9676214D01*
X7132214Y-9690500D01*
X7146500Y-9719072D01*
X7146500Y-9876214D01*
X7146500Y-9719072D02*
X7160786Y-9690500D01*
X7189357Y-9676214D01*
X7232214Y-9676214D01*
X7260786Y-9690500D01*
X7275071Y-9719072D01*
X7275071Y-9876214D01*
X7860786Y-9561929D02*
X7603643Y-9947643D01*
X8246500Y-9576214D02*
X8275071Y-9576214D01*
X8303643Y-9590500D01*
X8317928Y-9604786D01*
X8332214Y-9633357D01*
X8346500Y-9690500D01*
X8346500Y-9761929D01*
X8332214Y-9819072D01*
X8317928Y-9847643D01*
X8303643Y-9861929D01*
X8275071Y-9876214D01*
X8246500Y-9876214D01*
X8217928Y-9861929D01*
X8203643Y-9847643D01*
X8189357Y-9819072D01*
X8175071Y-9761929D01*
X8175071Y-9690500D01*
X8189357Y-9633357D01*
X8203643Y-9604786D01*
X8217928Y-9590500D01*
X8246500Y-9576214D01*
X8475071Y-9847643D02*
X8489357Y-9861929D01*
X8475071Y-9876214D01*
X8460786Y-9861929D01*
X8475071Y-9847643D01*
X8475071Y-9876214D01*
X8675071Y-9576214D02*
X8703643Y-9576214D01*
X8732214Y-9590500D01*
X8746500Y-9604786D01*
X8760786Y-9633357D01*
X8775071Y-9690500D01*
X8775071Y-9761929D01*
X8760786Y-9819072D01*
X8746500Y-9847643D01*
X8732214Y-9861929D01*
X8703643Y-9876214D01*
X8675071Y-9876214D01*
X8646500Y-9861929D01*
X8632214Y-9847643D01*
X8617928Y-9819072D01*
X8603643Y-9761929D01*
X8603643Y-9690500D01*
X8617928Y-9633357D01*
X8632214Y-9604786D01*
X8646500Y-9590500D01*
X8675071Y-9576214D01*
X8875071Y-9576214D02*
X9060786Y-9576214D01*
X8960786Y-9690500D01*
X9003643Y-9690500D01*
X9032214Y-9704786D01*
X9046500Y-9719072D01*
X9060786Y-9747643D01*
X9060786Y-9819072D01*
X9046500Y-9847643D01*
X9032214Y-9861929D01*
X9003643Y-9876214D01*
X8917928Y-9876214D01*
X8889357Y-9861929D01*
X8875071Y-9847643D01*
X9346500Y-9876214D02*
X9175071Y-9876214D01*
X9260786Y-9876214D02*
X9260786Y-9576214D01*
X9232214Y-9619072D01*
X9203643Y-9647643D01*
X9175071Y-9661929D01*
X9460786Y-9576214D02*
X9460786Y-9633357D01*
X9575071Y-9576214D02*
X9575071Y-9633357D01*
X10017928Y-9990500D02*
X10003643Y-9976214D01*
X9975071Y-9933357D01*
X9960786Y-9904786D01*
X9946500Y-9861929D01*
X9932214Y-9790500D01*
X9932214Y-9733357D01*
X9946500Y-9661929D01*
X9960786Y-9619072D01*
X9975071Y-9590500D01*
X10003643Y-9547643D01*
X10017928Y-9533357D01*
X10260786Y-9676214D02*
X10260786Y-9876214D01*
X10189357Y-9561929D02*
X10117928Y-9776214D01*
X10303643Y-9776214D01*
X10646500Y-9876214D02*
X10646500Y-9576214D01*
X10775071Y-9876214D02*
X10775071Y-9719072D01*
X10760786Y-9690500D01*
X10732214Y-9676214D01*
X10689357Y-9676214D01*
X10660786Y-9690500D01*
X10646500Y-9704786D01*
X10960786Y-9876214D02*
X10932214Y-9861929D01*
X10917928Y-9847643D01*
X10903643Y-9819072D01*
X10903643Y-9733357D01*
X10917928Y-9704786D01*
X10932214Y-9690500D01*
X10960786Y-9676214D01*
X11003643Y-9676214D01*
X11032214Y-9690500D01*
X11046500Y-9704786D01*
X11060786Y-9733357D01*
X11060786Y-9819072D01*
X11046500Y-9847643D01*
X11032214Y-9861929D01*
X11003643Y-9876214D01*
X10960786Y-9876214D01*
X11232214Y-9876214D02*
X11203643Y-9861929D01*
X11189357Y-9833357D01*
X11189357Y-9576214D01*
X11460786Y-9861929D02*
X11432214Y-9876214D01*
X11375071Y-9876214D01*
X11346500Y-9861929D01*
X11332214Y-9833357D01*
X11332214Y-9719072D01*
X11346500Y-9690500D01*
X11375071Y-9676214D01*
X11432214Y-9676214D01*
X11460786Y-9690500D01*
X11475071Y-9719072D01*
X11475071Y-9747643D01*
X11332214Y-9776214D01*
X11589357Y-9861929D02*
X11617928Y-9876214D01*
X11675071Y-9876214D01*
X11703643Y-9861929D01*
X11717928Y-9833357D01*
X11717928Y-9819072D01*
X11703643Y-9790500D01*
X11675071Y-9776214D01*
X11632214Y-9776214D01*
X11603643Y-9761929D01*
X11589357Y-9733357D01*
X11589357Y-9719072D01*
X11603643Y-9690500D01*
X11632214Y-9676214D01*
X11675071Y-9676214D01*
X11703643Y-9690500D01*
X11817928Y-9990500D02*
X11832214Y-9976214D01*
X11860786Y-9933357D01*
X11875071Y-9904786D01*
X11889357Y-9861929D01*
X11903643Y-9790500D01*
X11903643Y-9733357D01*
X11889357Y-9661929D01*
X11875071Y-9619072D01*
X11860786Y-9590500D01*
X11832214Y-9547643D01*
X11817928Y-9533357D01*
X5281500Y-10086500D02*
X5281500Y-10186500D01*
X5231500Y-10136500D02*
X5331500Y-10136500D01*
X5775071Y-10272214D02*
X5603643Y-10272214D01*
X5689357Y-10272214D02*
X5689357Y-9972214D01*
X5660786Y-10015072D01*
X5632214Y-10043643D01*
X5603643Y-10057929D01*
X5903643Y-10243643D02*
X5917928Y-10257929D01*
X5903643Y-10272214D01*
X5889357Y-10257929D01*
X5903643Y-10243643D01*
X5903643Y-10272214D01*
X6103643Y-9972214D02*
X6132214Y-9972214D01*
X6160786Y-9986500D01*
X6175071Y-10000786D01*
X6189357Y-10029357D01*
X6203643Y-10086500D01*
X6203643Y-10157929D01*
X6189357Y-10215072D01*
X6175071Y-10243643D01*
X6160786Y-10257929D01*
X6132214Y-10272214D01*
X6103643Y-10272214D01*
X6075071Y-10257929D01*
X6060786Y-10243643D01*
X6046500Y-10215072D01*
X6032214Y-10157929D01*
X6032214Y-10086500D01*
X6046500Y-10029357D01*
X6060786Y-10000786D01*
X6075071Y-9986500D01*
X6103643Y-9972214D01*
X6389357Y-9972214D02*
X6417928Y-9972214D01*
X6446500Y-9986500D01*
X6460786Y-10000786D01*
X6475071Y-10029357D01*
X6489357Y-10086500D01*
X6489357Y-10157929D01*
X6475071Y-10215072D01*
X6460786Y-10243643D01*
X6446500Y-10257929D01*
X6417928Y-10272214D01*
X6389357Y-10272214D01*
X6360786Y-10257929D01*
X6346500Y-10243643D01*
X6332214Y-10215072D01*
X6317928Y-10157929D01*
X6317928Y-10086500D01*
X6332214Y-10029357D01*
X6346500Y-10000786D01*
X6360786Y-9986500D01*
X6389357Y-9972214D01*
X6617928Y-10272214D02*
X6617928Y-10072214D01*
X6617928Y-10100786D02*
X6632214Y-10086500D01*
X6660786Y-10072214D01*
X6703643Y-10072214D01*
X6732214Y-10086500D01*
X6746500Y-10115072D01*
X6746500Y-10272214D01*
X6746500Y-10115072D02*
X6760786Y-10086500D01*
X6789357Y-10072214D01*
X6832214Y-10072214D01*
X6860786Y-10086500D01*
X6875071Y-10115072D01*
X6875071Y-10272214D01*
X7017928Y-10272214D02*
X7017928Y-10072214D01*
X7017928Y-10100786D02*
X7032214Y-10086500D01*
X7060786Y-10072214D01*
X7103643Y-10072214D01*
X7132214Y-10086500D01*
X7146500Y-10115072D01*
X7146500Y-10272214D01*
X7146500Y-10115072D02*
X7160786Y-10086500D01*
X7189357Y-10072214D01*
X7232214Y-10072214D01*
X7260786Y-10086500D01*
X7275071Y-10115072D01*
X7275071Y-10272214D01*
X7860786Y-9957929D02*
X7603643Y-10343643D01*
X8246500Y-9972214D02*
X8275071Y-9972214D01*
X8303643Y-9986500D01*
X8317928Y-10000786D01*
X8332214Y-10029357D01*
X8346500Y-10086500D01*
X8346500Y-10157929D01*
X8332214Y-10215072D01*
X8317928Y-10243643D01*
X8303643Y-10257929D01*
X8275071Y-10272214D01*
X8246500Y-10272214D01*
X8217928Y-10257929D01*
X8203643Y-10243643D01*
X8189357Y-10215072D01*
X8175071Y-10157929D01*
X8175071Y-10086500D01*
X8189357Y-10029357D01*
X8203643Y-10000786D01*
X8217928Y-9986500D01*
X8246500Y-9972214D01*
X8475071Y-10243643D02*
X8489357Y-10257929D01*
X8475071Y-10272214D01*
X8460786Y-10257929D01*
X8475071Y-10243643D01*
X8475071Y-10272214D01*
X8675071Y-9972214D02*
X8703643Y-9972214D01*
X8732214Y-9986500D01*
X8746500Y-10000786D01*
X8760786Y-10029357D01*
X8775071Y-10086500D01*
X8775071Y-10157929D01*
X8760786Y-10215072D01*
X8746500Y-10243643D01*
X8732214Y-10257929D01*
X8703643Y-10272214D01*
X8675071Y-10272214D01*
X8646500Y-10257929D01*
X8632214Y-10243643D01*
X8617928Y-10215072D01*
X8603643Y-10157929D01*
X8603643Y-10086500D01*
X8617928Y-10029357D01*
X8632214Y-10000786D01*
X8646500Y-9986500D01*
X8675071Y-9972214D01*
X8875071Y-9972214D02*
X9060786Y-9972214D01*
X8960786Y-10086500D01*
X9003643Y-10086500D01*
X9032214Y-10100786D01*
X9046500Y-10115072D01*
X9060786Y-10143643D01*
X9060786Y-10215072D01*
X9046500Y-10243643D01*
X9032214Y-10257929D01*
X9003643Y-10272214D01*
X8917928Y-10272214D01*
X8889357Y-10257929D01*
X8875071Y-10243643D01*
X9203643Y-10272214D02*
X9260786Y-10272214D01*
X9289357Y-10257929D01*
X9303643Y-10243643D01*
X9332214Y-10200786D01*
X9346500Y-10143643D01*
X9346500Y-10029357D01*
X9332214Y-10000786D01*
X9317928Y-9986500D01*
X9289357Y-9972214D01*
X9232214Y-9972214D01*
X9203643Y-9986500D01*
X9189357Y-10000786D01*
X9175071Y-10029357D01*
X9175071Y-10100786D01*
X9189357Y-10129357D01*
X9203643Y-10143643D01*
X9232214Y-10157929D01*
X9289357Y-10157929D01*
X9317928Y-10143643D01*
X9332214Y-10129357D01*
X9346500Y-10100786D01*
X9460786Y-9972214D02*
X9460786Y-10029357D01*
X9575071Y-9972214D02*
X9575071Y-10029357D01*
X10017928Y-10386500D02*
X10003643Y-10372214D01*
X9975071Y-10329357D01*
X9960786Y-10300786D01*
X9946500Y-10257929D01*
X9932214Y-10186500D01*
X9932214Y-10129357D01*
X9946500Y-10057929D01*
X9960786Y-10015072D01*
X9975071Y-9986500D01*
X10003643Y-9943643D01*
X10017928Y-9929357D01*
X10275071Y-9972214D02*
X10132214Y-9972214D01*
X10117928Y-10115072D01*
X10132214Y-10100786D01*
X10160786Y-10086500D01*
X10232214Y-10086500D01*
X10260786Y-10100786D01*
X10275071Y-10115072D01*
X10289357Y-10143643D01*
X10289357Y-10215072D01*
X10275071Y-10243643D01*
X10260786Y-10257929D01*
X10232214Y-10272214D01*
X10160786Y-10272214D01*
X10132214Y-10257929D01*
X10117928Y-10243643D01*
X10646500Y-10272214D02*
X10646500Y-9972214D01*
X10775071Y-10272214D02*
X10775071Y-10115072D01*
X10760786Y-10086500D01*
X10732214Y-10072214D01*
X10689357Y-10072214D01*
X10660786Y-10086500D01*
X10646500Y-10100786D01*
X10960786Y-10272214D02*
X10932214Y-10257929D01*
X10917928Y-10243643D01*
X10903643Y-10215072D01*
X10903643Y-10129357D01*
X10917928Y-10100786D01*
X10932214Y-10086500D01*
X10960786Y-10072214D01*
X11003643Y-10072214D01*
X11032214Y-10086500D01*
X11046500Y-10100786D01*
X11060786Y-10129357D01*
X11060786Y-10215072D01*
X11046500Y-10243643D01*
X11032214Y-10257929D01*
X11003643Y-10272214D01*
X10960786Y-10272214D01*
X11232214Y-10272214D02*
X11203643Y-10257929D01*
X11189357Y-10229357D01*
X11189357Y-9972214D01*
X11460786Y-10257929D02*
X11432214Y-10272214D01*
X11375071Y-10272214D01*
X11346500Y-10257929D01*
X11332214Y-10229357D01*
X11332214Y-10115072D01*
X11346500Y-10086500D01*
X11375071Y-10072214D01*
X11432214Y-10072214D01*
X11460786Y-10086500D01*
X11475071Y-10115072D01*
X11475071Y-10143643D01*
X11332214Y-10172214D01*
X11589357Y-10257929D02*
X11617928Y-10272214D01*
X11675071Y-10272214D01*
X11703643Y-10257929D01*
X11717928Y-10229357D01*
X11717928Y-10215072D01*
X11703643Y-10186500D01*
X11675071Y-10172214D01*
X11632214Y-10172214D01*
X11603643Y-10157929D01*
X11589357Y-10129357D01*
X11589357Y-10115072D01*
X11603643Y-10086500D01*
X11632214Y-10072214D01*
X11675071Y-10072214D01*
X11703643Y-10086500D01*
X11817928Y-10386500D02*
X11832214Y-10372214D01*
X11860786Y-10329357D01*
X11875071Y-10300786D01*
X11889357Y-10257929D01*
X11903643Y-10186500D01*
X11903643Y-10129357D01*
X11889357Y-10057929D01*
X11875071Y-10015072D01*
X11860786Y-9986500D01*
X11832214Y-9943643D01*
X11817928Y-9929357D01*
X5316123Y-10569624D02*
X5316123Y-10495377D01*
X5241876Y-10495377D01*
X5241876Y-10569624D01*
X5316123Y-10569624D01*
X5775071Y-10668214D02*
X5603643Y-10668214D01*
X5689357Y-10668214D02*
X5689357Y-10368214D01*
X5660786Y-10411072D01*
X5632214Y-10439643D01*
X5603643Y-10453929D01*
X5903643Y-10639643D02*
X5917928Y-10653929D01*
X5903643Y-10668214D01*
X5889357Y-10653929D01*
X5903643Y-10639643D01*
X5903643Y-10668214D01*
X6103643Y-10368214D02*
X6132214Y-10368214D01*
X6160786Y-10382500D01*
X6175071Y-10396786D01*
X6189357Y-10425357D01*
X6203643Y-10482500D01*
X6203643Y-10553929D01*
X6189357Y-10611072D01*
X6175071Y-10639643D01*
X6160786Y-10653929D01*
X6132214Y-10668214D01*
X6103643Y-10668214D01*
X6075071Y-10653929D01*
X6060786Y-10639643D01*
X6046500Y-10611072D01*
X6032214Y-10553929D01*
X6032214Y-10482500D01*
X6046500Y-10425357D01*
X6060786Y-10396786D01*
X6075071Y-10382500D01*
X6103643Y-10368214D01*
X6475071Y-10368214D02*
X6332214Y-10368214D01*
X6317928Y-10511072D01*
X6332214Y-10496786D01*
X6360786Y-10482500D01*
X6432214Y-10482500D01*
X6460786Y-10496786D01*
X6475071Y-10511072D01*
X6489357Y-10539643D01*
X6489357Y-10611072D01*
X6475071Y-10639643D01*
X6460786Y-10653929D01*
X6432214Y-10668214D01*
X6360786Y-10668214D01*
X6332214Y-10653929D01*
X6317928Y-10639643D01*
X6617928Y-10668214D02*
X6617928Y-10468214D01*
X6617928Y-10496786D02*
X6632214Y-10482500D01*
X6660786Y-10468214D01*
X6703643Y-10468214D01*
X6732214Y-10482500D01*
X6746500Y-10511072D01*
X6746500Y-10668214D01*
X6746500Y-10511072D02*
X6760786Y-10482500D01*
X6789357Y-10468214D01*
X6832214Y-10468214D01*
X6860786Y-10482500D01*
X6875071Y-10511072D01*
X6875071Y-10668214D01*
X7017928Y-10668214D02*
X7017928Y-10468214D01*
X7017928Y-10496786D02*
X7032214Y-10482500D01*
X7060786Y-10468214D01*
X7103643Y-10468214D01*
X7132214Y-10482500D01*
X7146500Y-10511072D01*
X7146500Y-10668214D01*
X7146500Y-10511072D02*
X7160786Y-10482500D01*
X7189357Y-10468214D01*
X7232214Y-10468214D01*
X7260786Y-10482500D01*
X7275071Y-10511072D01*
X7275071Y-10668214D01*
X7860786Y-10353929D02*
X7603643Y-10739643D01*
X8246500Y-10368214D02*
X8275071Y-10368214D01*
X8303643Y-10382500D01*
X8317928Y-10396786D01*
X8332214Y-10425357D01*
X8346500Y-10482500D01*
X8346500Y-10553929D01*
X8332214Y-10611072D01*
X8317928Y-10639643D01*
X8303643Y-10653929D01*
X8275071Y-10668214D01*
X8246500Y-10668214D01*
X8217928Y-10653929D01*
X8203643Y-10639643D01*
X8189357Y-10611072D01*
X8175071Y-10553929D01*
X8175071Y-10482500D01*
X8189357Y-10425357D01*
X8203643Y-10396786D01*
X8217928Y-10382500D01*
X8246500Y-10368214D01*
X8475071Y-10639643D02*
X8489357Y-10653929D01*
X8475071Y-10668214D01*
X8460786Y-10653929D01*
X8475071Y-10639643D01*
X8475071Y-10668214D01*
X8675071Y-10368214D02*
X8703643Y-10368214D01*
X8732214Y-10382500D01*
X8746500Y-10396786D01*
X8760786Y-10425357D01*
X8775071Y-10482500D01*
X8775071Y-10553929D01*
X8760786Y-10611072D01*
X8746500Y-10639643D01*
X8732214Y-10653929D01*
X8703643Y-10668214D01*
X8675071Y-10668214D01*
X8646500Y-10653929D01*
X8632214Y-10639643D01*
X8617928Y-10611072D01*
X8603643Y-10553929D01*
X8603643Y-10482500D01*
X8617928Y-10425357D01*
X8632214Y-10396786D01*
X8646500Y-10382500D01*
X8675071Y-10368214D01*
X9032214Y-10468214D02*
X9032214Y-10668214D01*
X8960786Y-10353929D02*
X8889357Y-10568214D01*
X9075071Y-10568214D01*
X9346500Y-10668214D02*
X9175071Y-10668214D01*
X9260786Y-10668214D02*
X9260786Y-10368214D01*
X9232214Y-10411072D01*
X9203643Y-10439643D01*
X9175071Y-10453929D01*
X9460786Y-10368214D02*
X9460786Y-10425357D01*
X9575071Y-10368214D02*
X9575071Y-10425357D01*
X10017928Y-10782500D02*
X10003643Y-10768214D01*
X9975071Y-10725357D01*
X9960786Y-10696786D01*
X9946500Y-10653929D01*
X9932214Y-10582500D01*
X9932214Y-10525357D01*
X9946500Y-10453929D01*
X9960786Y-10411072D01*
X9975071Y-10382500D01*
X10003643Y-10339643D01*
X10017928Y-10325357D01*
X10117928Y-10396786D02*
X10132214Y-10382500D01*
X10160786Y-10368214D01*
X10232214Y-10368214D01*
X10260786Y-10382500D01*
X10275071Y-10396786D01*
X10289357Y-10425357D01*
X10289357Y-10453929D01*
X10275071Y-10496786D01*
X10103643Y-10668214D01*
X10289357Y-10668214D01*
X10646500Y-10668214D02*
X10646500Y-10368214D01*
X10775071Y-10668214D02*
X10775071Y-10511072D01*
X10760786Y-10482500D01*
X10732214Y-10468214D01*
X10689357Y-10468214D01*
X10660786Y-10482500D01*
X10646500Y-10496786D01*
X10960786Y-10668214D02*
X10932214Y-10653929D01*
X10917928Y-10639643D01*
X10903643Y-10611072D01*
X10903643Y-10525357D01*
X10917928Y-10496786D01*
X10932214Y-10482500D01*
X10960786Y-10468214D01*
X11003643Y-10468214D01*
X11032214Y-10482500D01*
X11046500Y-10496786D01*
X11060786Y-10525357D01*
X11060786Y-10611072D01*
X11046500Y-10639643D01*
X11032214Y-10653929D01*
X11003643Y-10668214D01*
X10960786Y-10668214D01*
X11232214Y-10668214D02*
X11203643Y-10653929D01*
X11189357Y-10625357D01*
X11189357Y-10368214D01*
X11460786Y-10653929D02*
X11432214Y-10668214D01*
X11375071Y-10668214D01*
X11346500Y-10653929D01*
X11332214Y-10625357D01*
X11332214Y-10511072D01*
X11346500Y-10482500D01*
X11375071Y-10468214D01*
X11432214Y-10468214D01*
X11460786Y-10482500D01*
X11475071Y-10511072D01*
X11475071Y-10539643D01*
X11332214Y-10568214D01*
X11589357Y-10653929D02*
X11617928Y-10668214D01*
X11675071Y-10668214D01*
X11703643Y-10653929D01*
X11717928Y-10625357D01*
X11717928Y-10611072D01*
X11703643Y-10582500D01*
X11675071Y-10568214D01*
X11632214Y-10568214D01*
X11603643Y-10553929D01*
X11589357Y-10525357D01*
X11589357Y-10511072D01*
X11603643Y-10482500D01*
X11632214Y-10468214D01*
X11675071Y-10468214D01*
X11703643Y-10482500D01*
X11817928Y-10782500D02*
X11832214Y-10768214D01*
X11860786Y-10725357D01*
X11875071Y-10696786D01*
X11889357Y-10653929D01*
X11903643Y-10582500D01*
X11903643Y-10525357D01*
X11889357Y-10453929D01*
X11875071Y-10411072D01*
X11860786Y-10382500D01*
X11832214Y-10339643D01*
X11817928Y-10325357D01*
X5266500Y-10993500D02*
X5331500Y-10928500D01*
X5266500Y-10863500D01*
X5201500Y-10928500D01*
X5266500Y-10993500D01*
X5775071Y-11064214D02*
X5603643Y-11064214D01*
X5689357Y-11064214D02*
X5689357Y-10764214D01*
X5660786Y-10807072D01*
X5632214Y-10835643D01*
X5603643Y-10849929D01*
X5903643Y-11035643D02*
X5917928Y-11049929D01*
X5903643Y-11064214D01*
X5889357Y-11049929D01*
X5903643Y-11035643D01*
X5903643Y-11064214D01*
X6017928Y-10764214D02*
X6203643Y-10764214D01*
X6103643Y-10878500D01*
X6146500Y-10878500D01*
X6175071Y-10892786D01*
X6189357Y-10907072D01*
X6203643Y-10935643D01*
X6203643Y-11007072D01*
X6189357Y-11035643D01*
X6175071Y-11049929D01*
X6146500Y-11064214D01*
X6060786Y-11064214D01*
X6032214Y-11049929D01*
X6017928Y-11035643D01*
X6389357Y-10764214D02*
X6417928Y-10764214D01*
X6446500Y-10778500D01*
X6460786Y-10792786D01*
X6475071Y-10821357D01*
X6489357Y-10878500D01*
X6489357Y-10949929D01*
X6475071Y-11007072D01*
X6460786Y-11035643D01*
X6446500Y-11049929D01*
X6417928Y-11064214D01*
X6389357Y-11064214D01*
X6360786Y-11049929D01*
X6346500Y-11035643D01*
X6332214Y-11007072D01*
X6317928Y-10949929D01*
X6317928Y-10878500D01*
X6332214Y-10821357D01*
X6346500Y-10792786D01*
X6360786Y-10778500D01*
X6389357Y-10764214D01*
X6617928Y-11064214D02*
X6617928Y-10864214D01*
X6617928Y-10892786D02*
X6632214Y-10878500D01*
X6660786Y-10864214D01*
X6703643Y-10864214D01*
X6732214Y-10878500D01*
X6746500Y-10907072D01*
X6746500Y-11064214D01*
X6746500Y-10907072D02*
X6760786Y-10878500D01*
X6789357Y-10864214D01*
X6832214Y-10864214D01*
X6860786Y-10878500D01*
X6875071Y-10907072D01*
X6875071Y-11064214D01*
X7017928Y-11064214D02*
X7017928Y-10864214D01*
X7017928Y-10892786D02*
X7032214Y-10878500D01*
X7060786Y-10864214D01*
X7103643Y-10864214D01*
X7132214Y-10878500D01*
X7146500Y-10907072D01*
X7146500Y-11064214D01*
X7146500Y-10907072D02*
X7160786Y-10878500D01*
X7189357Y-10864214D01*
X7232214Y-10864214D01*
X7260786Y-10878500D01*
X7275071Y-10907072D01*
X7275071Y-11064214D01*
X7860786Y-10749929D02*
X7603643Y-11135643D01*
X8246500Y-10764214D02*
X8275071Y-10764214D01*
X8303643Y-10778500D01*
X8317928Y-10792786D01*
X8332214Y-10821357D01*
X8346500Y-10878500D01*
X8346500Y-10949929D01*
X8332214Y-11007072D01*
X8317928Y-11035643D01*
X8303643Y-11049929D01*
X8275071Y-11064214D01*
X8246500Y-11064214D01*
X8217928Y-11049929D01*
X8203643Y-11035643D01*
X8189357Y-11007072D01*
X8175071Y-10949929D01*
X8175071Y-10878500D01*
X8189357Y-10821357D01*
X8203643Y-10792786D01*
X8217928Y-10778500D01*
X8246500Y-10764214D01*
X8475071Y-11035643D02*
X8489357Y-11049929D01*
X8475071Y-11064214D01*
X8460786Y-11049929D01*
X8475071Y-11035643D01*
X8475071Y-11064214D01*
X8675071Y-10764214D02*
X8703643Y-10764214D01*
X8732214Y-10778500D01*
X8746500Y-10792786D01*
X8760786Y-10821357D01*
X8775071Y-10878500D01*
X8775071Y-10949929D01*
X8760786Y-11007072D01*
X8746500Y-11035643D01*
X8732214Y-11049929D01*
X8703643Y-11064214D01*
X8675071Y-11064214D01*
X8646500Y-11049929D01*
X8632214Y-11035643D01*
X8617928Y-11007072D01*
X8603643Y-10949929D01*
X8603643Y-10878500D01*
X8617928Y-10821357D01*
X8632214Y-10792786D01*
X8646500Y-10778500D01*
X8675071Y-10764214D01*
X9046500Y-10764214D02*
X8903643Y-10764214D01*
X8889357Y-10907072D01*
X8903643Y-10892786D01*
X8932214Y-10878500D01*
X9003643Y-10878500D01*
X9032214Y-10892786D01*
X9046500Y-10907072D01*
X9060786Y-10935643D01*
X9060786Y-11007072D01*
X9046500Y-11035643D01*
X9032214Y-11049929D01*
X9003643Y-11064214D01*
X8932214Y-11064214D01*
X8903643Y-11049929D01*
X8889357Y-11035643D01*
X9346500Y-11064214D02*
X9175071Y-11064214D01*
X9260786Y-11064214D02*
X9260786Y-10764214D01*
X9232214Y-10807072D01*
X9203643Y-10835643D01*
X9175071Y-10849929D01*
X9460786Y-10764214D02*
X9460786Y-10821357D01*
X9575071Y-10764214D02*
X9575071Y-10821357D01*
X10017928Y-11178500D02*
X10003643Y-11164214D01*
X9975071Y-11121357D01*
X9960786Y-11092786D01*
X9946500Y-11049929D01*
X9932214Y-10978500D01*
X9932214Y-10921357D01*
X9946500Y-10849929D01*
X9960786Y-10807072D01*
X9975071Y-10778500D01*
X10003643Y-10735643D01*
X10017928Y-10721357D01*
X10175071Y-10892786D02*
X10146500Y-10878500D01*
X10132214Y-10864214D01*
X10117928Y-10835643D01*
X10117928Y-10821357D01*
X10132214Y-10792786D01*
X10146500Y-10778500D01*
X10175071Y-10764214D01*
X10232214Y-10764214D01*
X10260786Y-10778500D01*
X10275071Y-10792786D01*
X10289357Y-10821357D01*
X10289357Y-10835643D01*
X10275071Y-10864214D01*
X10260786Y-10878500D01*
X10232214Y-10892786D01*
X10175071Y-10892786D01*
X10146500Y-10907072D01*
X10132214Y-10921357D01*
X10117928Y-10949929D01*
X10117928Y-11007072D01*
X10132214Y-11035643D01*
X10146500Y-11049929D01*
X10175071Y-11064214D01*
X10232214Y-11064214D01*
X10260786Y-11049929D01*
X10275071Y-11035643D01*
X10289357Y-11007072D01*
X10289357Y-10949929D01*
X10275071Y-10921357D01*
X10260786Y-10907072D01*
X10232214Y-10892786D01*
X10646500Y-11064214D02*
X10646500Y-10764214D01*
X10775071Y-11064214D02*
X10775071Y-10907072D01*
X10760786Y-10878500D01*
X10732214Y-10864214D01*
X10689357Y-10864214D01*
X10660786Y-10878500D01*
X10646500Y-10892786D01*
X10960786Y-11064214D02*
X10932214Y-11049929D01*
X10917928Y-11035643D01*
X10903643Y-11007072D01*
X10903643Y-10921357D01*
X10917928Y-10892786D01*
X10932214Y-10878500D01*
X10960786Y-10864214D01*
X11003643Y-10864214D01*
X11032214Y-10878500D01*
X11046500Y-10892786D01*
X11060786Y-10921357D01*
X11060786Y-11007072D01*
X11046500Y-11035643D01*
X11032214Y-11049929D01*
X11003643Y-11064214D01*
X10960786Y-11064214D01*
X11232214Y-11064214D02*
X11203643Y-11049929D01*
X11189357Y-11021357D01*
X11189357Y-10764214D01*
X11460786Y-11049929D02*
X11432214Y-11064214D01*
X11375071Y-11064214D01*
X11346500Y-11049929D01*
X11332214Y-11021357D01*
X11332214Y-10907072D01*
X11346500Y-10878500D01*
X11375071Y-10864214D01*
X11432214Y-10864214D01*
X11460786Y-10878500D01*
X11475071Y-10907072D01*
X11475071Y-10935643D01*
X11332214Y-10964214D01*
X11589357Y-11049929D02*
X11617928Y-11064214D01*
X11675071Y-11064214D01*
X11703643Y-11049929D01*
X11717928Y-11021357D01*
X11717928Y-11007072D01*
X11703643Y-10978500D01*
X11675071Y-10964214D01*
X11632214Y-10964214D01*
X11603643Y-10949929D01*
X11589357Y-10921357D01*
X11589357Y-10907072D01*
X11603643Y-10878500D01*
X11632214Y-10864214D01*
X11675071Y-10864214D01*
X11703643Y-10878500D01*
X11817928Y-11178500D02*
X11832214Y-11164214D01*
X11860786Y-11121357D01*
X11875071Y-11092786D01*
X11889357Y-11049929D01*
X11903643Y-10978500D01*
X11903643Y-10921357D01*
X11889357Y-10849929D01*
X11875071Y-10807072D01*
X11860786Y-10778500D01*
X11832214Y-10735643D01*
X11817928Y-10721357D01*
X5181500Y-11249500D02*
X5331500Y-11399500D01*
X5331500Y-11249500D02*
X5181500Y-11399500D01*
X5331500Y-11324500D02*
G75*
G03*
X5331500Y-11324500I-75000J0D01*
G01*
X5775071Y-11460214D02*
X5603643Y-11460214D01*
X5689357Y-11460214D02*
X5689357Y-11160214D01*
X5660786Y-11203071D01*
X5632214Y-11231643D01*
X5603643Y-11245929D01*
X5903643Y-11431643D02*
X5917928Y-11445929D01*
X5903643Y-11460214D01*
X5889357Y-11445929D01*
X5903643Y-11431643D01*
X5903643Y-11460214D01*
X6189357Y-11160214D02*
X6046500Y-11160214D01*
X6032214Y-11303071D01*
X6046500Y-11288786D01*
X6075071Y-11274500D01*
X6146500Y-11274500D01*
X6175071Y-11288786D01*
X6189357Y-11303071D01*
X6203643Y-11331643D01*
X6203643Y-11403071D01*
X6189357Y-11431643D01*
X6175071Y-11445929D01*
X6146500Y-11460214D01*
X6075071Y-11460214D01*
X6046500Y-11445929D01*
X6032214Y-11431643D01*
X6389357Y-11160214D02*
X6417928Y-11160214D01*
X6446500Y-11174500D01*
X6460786Y-11188786D01*
X6475071Y-11217357D01*
X6489357Y-11274500D01*
X6489357Y-11345929D01*
X6475071Y-11403071D01*
X6460786Y-11431643D01*
X6446500Y-11445929D01*
X6417928Y-11460214D01*
X6389357Y-11460214D01*
X6360786Y-11445929D01*
X6346500Y-11431643D01*
X6332214Y-11403071D01*
X6317928Y-11345929D01*
X6317928Y-11274500D01*
X6332214Y-11217357D01*
X6346500Y-11188786D01*
X6360786Y-11174500D01*
X6389357Y-11160214D01*
X6617928Y-11460214D02*
X6617928Y-11260214D01*
X6617928Y-11288786D02*
X6632214Y-11274500D01*
X6660786Y-11260214D01*
X6703643Y-11260214D01*
X6732214Y-11274500D01*
X6746500Y-11303071D01*
X6746500Y-11460214D01*
X6746500Y-11303071D02*
X6760786Y-11274500D01*
X6789357Y-11260214D01*
X6832214Y-11260214D01*
X6860786Y-11274500D01*
X6875071Y-11303071D01*
X6875071Y-11460214D01*
X7017928Y-11460214D02*
X7017928Y-11260214D01*
X7017928Y-11288786D02*
X7032214Y-11274500D01*
X7060786Y-11260214D01*
X7103643Y-11260214D01*
X7132214Y-11274500D01*
X7146500Y-11303071D01*
X7146500Y-11460214D01*
X7146500Y-11303071D02*
X7160786Y-11274500D01*
X7189357Y-11260214D01*
X7232214Y-11260214D01*
X7260786Y-11274500D01*
X7275071Y-11303071D01*
X7275071Y-11460214D01*
X7860786Y-11145929D02*
X7603643Y-11531643D01*
X8246500Y-11160214D02*
X8275071Y-11160214D01*
X8303643Y-11174500D01*
X8317928Y-11188786D01*
X8332214Y-11217357D01*
X8346500Y-11274500D01*
X8346500Y-11345929D01*
X8332214Y-11403071D01*
X8317928Y-11431643D01*
X8303643Y-11445929D01*
X8275071Y-11460214D01*
X8246500Y-11460214D01*
X8217928Y-11445929D01*
X8203643Y-11431643D01*
X8189357Y-11403071D01*
X8175071Y-11345929D01*
X8175071Y-11274500D01*
X8189357Y-11217357D01*
X8203643Y-11188786D01*
X8217928Y-11174500D01*
X8246500Y-11160214D01*
X8475071Y-11431643D02*
X8489357Y-11445929D01*
X8475071Y-11460214D01*
X8460786Y-11445929D01*
X8475071Y-11431643D01*
X8475071Y-11460214D01*
X8675071Y-11160214D02*
X8703643Y-11160214D01*
X8732214Y-11174500D01*
X8746500Y-11188786D01*
X8760786Y-11217357D01*
X8775071Y-11274500D01*
X8775071Y-11345929D01*
X8760786Y-11403071D01*
X8746500Y-11431643D01*
X8732214Y-11445929D01*
X8703643Y-11460214D01*
X8675071Y-11460214D01*
X8646500Y-11445929D01*
X8632214Y-11431643D01*
X8617928Y-11403071D01*
X8603643Y-11345929D01*
X8603643Y-11274500D01*
X8617928Y-11217357D01*
X8632214Y-11188786D01*
X8646500Y-11174500D01*
X8675071Y-11160214D01*
X9046500Y-11160214D02*
X8903643Y-11160214D01*
X8889357Y-11303071D01*
X8903643Y-11288786D01*
X8932214Y-11274500D01*
X9003643Y-11274500D01*
X9032214Y-11288786D01*
X9046500Y-11303071D01*
X9060786Y-11331643D01*
X9060786Y-11403071D01*
X9046500Y-11431643D01*
X9032214Y-11445929D01*
X9003643Y-11460214D01*
X8932214Y-11460214D01*
X8903643Y-11445929D01*
X8889357Y-11431643D01*
X9203643Y-11460214D02*
X9260786Y-11460214D01*
X9289357Y-11445929D01*
X9303643Y-11431643D01*
X9332214Y-11388786D01*
X9346500Y-11331643D01*
X9346500Y-11217357D01*
X9332214Y-11188786D01*
X9317928Y-11174500D01*
X9289357Y-11160214D01*
X9232214Y-11160214D01*
X9203643Y-11174500D01*
X9189357Y-11188786D01*
X9175071Y-11217357D01*
X9175071Y-11288786D01*
X9189357Y-11317357D01*
X9203643Y-11331643D01*
X9232214Y-11345929D01*
X9289357Y-11345929D01*
X9317928Y-11331643D01*
X9332214Y-11317357D01*
X9346500Y-11288786D01*
X9460786Y-11160214D02*
X9460786Y-11217357D01*
X9575071Y-11160214D02*
X9575071Y-11217357D01*
X10017928Y-11574500D02*
X10003643Y-11560214D01*
X9975071Y-11517357D01*
X9960786Y-11488786D01*
X9946500Y-11445929D01*
X9932214Y-11374500D01*
X9932214Y-11317357D01*
X9946500Y-11245929D01*
X9960786Y-11203071D01*
X9975071Y-11174500D01*
X10003643Y-11131643D01*
X10017928Y-11117357D01*
X10260786Y-11260214D02*
X10260786Y-11460214D01*
X10189357Y-11145929D02*
X10117928Y-11360214D01*
X10303643Y-11360214D01*
X10646500Y-11460214D02*
X10646500Y-11160214D01*
X10775071Y-11460214D02*
X10775071Y-11303071D01*
X10760786Y-11274500D01*
X10732214Y-11260214D01*
X10689357Y-11260214D01*
X10660786Y-11274500D01*
X10646500Y-11288786D01*
X10960786Y-11460214D02*
X10932214Y-11445929D01*
X10917928Y-11431643D01*
X10903643Y-11403071D01*
X10903643Y-11317357D01*
X10917928Y-11288786D01*
X10932214Y-11274500D01*
X10960786Y-11260214D01*
X11003643Y-11260214D01*
X11032214Y-11274500D01*
X11046500Y-11288786D01*
X11060786Y-11317357D01*
X11060786Y-11403071D01*
X11046500Y-11431643D01*
X11032214Y-11445929D01*
X11003643Y-11460214D01*
X10960786Y-11460214D01*
X11232214Y-11460214D02*
X11203643Y-11445929D01*
X11189357Y-11417357D01*
X11189357Y-11160214D01*
X11460786Y-11445929D02*
X11432214Y-11460214D01*
X11375071Y-11460214D01*
X11346500Y-11445929D01*
X11332214Y-11417357D01*
X11332214Y-11303071D01*
X11346500Y-11274500D01*
X11375071Y-11260214D01*
X11432214Y-11260214D01*
X11460786Y-11274500D01*
X11475071Y-11303071D01*
X11475071Y-11331643D01*
X11332214Y-11360214D01*
X11589357Y-11445929D02*
X11617928Y-11460214D01*
X11675071Y-11460214D01*
X11703643Y-11445929D01*
X11717928Y-11417357D01*
X11717928Y-11403071D01*
X11703643Y-11374500D01*
X11675071Y-11360214D01*
X11632214Y-11360214D01*
X11603643Y-11345929D01*
X11589357Y-11317357D01*
X11589357Y-11303071D01*
X11603643Y-11274500D01*
X11632214Y-11260214D01*
X11675071Y-11260214D01*
X11703643Y-11274500D01*
X11817928Y-11574500D02*
X11832214Y-11560214D01*
X11860786Y-11517357D01*
X11875071Y-11488786D01*
X11889357Y-11445929D01*
X11903643Y-11374500D01*
X11903643Y-11317357D01*
X11889357Y-11245929D01*
X11875071Y-11203071D01*
X11860786Y-11174500D01*
X11832214Y-11131643D01*
X11817928Y-11117357D01*
X5011500Y-11560500D02*
X5331500Y-11880500D01*
X5331500Y-11560500D02*
X5011500Y-11880500D01*
X5171500Y-11560500D02*
X5171500Y-11880500D01*
X5011500Y-11720500D02*
X5331500Y-11720500D01*
X5589357Y-11556214D02*
X5775071Y-11556214D01*
X5675071Y-11670500D01*
X5717928Y-11670500D01*
X5746500Y-11684786D01*
X5760786Y-11699071D01*
X5775071Y-11727643D01*
X5775071Y-11799071D01*
X5760786Y-11827643D01*
X5746500Y-11841929D01*
X5717928Y-11856214D01*
X5632214Y-11856214D01*
X5603643Y-11841929D01*
X5589357Y-11827643D01*
X5903643Y-11827643D02*
X5917928Y-11841929D01*
X5903643Y-11856214D01*
X5889357Y-11841929D01*
X5903643Y-11827643D01*
X5903643Y-11856214D01*
X6032214Y-11584786D02*
X6046500Y-11570500D01*
X6075071Y-11556214D01*
X6146500Y-11556214D01*
X6175071Y-11570500D01*
X6189357Y-11584786D01*
X6203643Y-11613357D01*
X6203643Y-11641929D01*
X6189357Y-11684786D01*
X6017928Y-11856214D01*
X6203643Y-11856214D01*
X6389357Y-11556214D02*
X6417928Y-11556214D01*
X6446500Y-11570500D01*
X6460786Y-11584786D01*
X6475071Y-11613357D01*
X6489357Y-11670500D01*
X6489357Y-11741929D01*
X6475071Y-11799071D01*
X6460786Y-11827643D01*
X6446500Y-11841929D01*
X6417928Y-11856214D01*
X6389357Y-11856214D01*
X6360786Y-11841929D01*
X6346500Y-11827643D01*
X6332214Y-11799071D01*
X6317928Y-11741929D01*
X6317928Y-11670500D01*
X6332214Y-11613357D01*
X6346500Y-11584786D01*
X6360786Y-11570500D01*
X6389357Y-11556214D01*
X6617928Y-11856214D02*
X6617928Y-11656214D01*
X6617928Y-11684786D02*
X6632214Y-11670500D01*
X6660786Y-11656214D01*
X6703643Y-11656214D01*
X6732214Y-11670500D01*
X6746500Y-11699071D01*
X6746500Y-11856214D01*
X6746500Y-11699071D02*
X6760786Y-11670500D01*
X6789357Y-11656214D01*
X6832214Y-11656214D01*
X6860786Y-11670500D01*
X6875071Y-11699071D01*
X6875071Y-11856214D01*
X7017928Y-11856214D02*
X7017928Y-11656214D01*
X7017928Y-11684786D02*
X7032214Y-11670500D01*
X7060786Y-11656214D01*
X7103643Y-11656214D01*
X7132214Y-11670500D01*
X7146500Y-11699071D01*
X7146500Y-11856214D01*
X7146500Y-11699071D02*
X7160786Y-11670500D01*
X7189357Y-11656214D01*
X7232214Y-11656214D01*
X7260786Y-11670500D01*
X7275071Y-11699071D01*
X7275071Y-11856214D01*
X7860786Y-11541929D02*
X7603643Y-11927643D01*
X8246500Y-11556214D02*
X8275071Y-11556214D01*
X8303643Y-11570500D01*
X8317928Y-11584786D01*
X8332214Y-11613357D01*
X8346500Y-11670500D01*
X8346500Y-11741929D01*
X8332214Y-11799071D01*
X8317928Y-11827643D01*
X8303643Y-11841929D01*
X8275071Y-11856214D01*
X8246500Y-11856214D01*
X8217928Y-11841929D01*
X8203643Y-11827643D01*
X8189357Y-11799071D01*
X8175071Y-11741929D01*
X8175071Y-11670500D01*
X8189357Y-11613357D01*
X8203643Y-11584786D01*
X8217928Y-11570500D01*
X8246500Y-11556214D01*
X8475071Y-11827643D02*
X8489357Y-11841929D01*
X8475071Y-11856214D01*
X8460786Y-11841929D01*
X8475071Y-11827643D01*
X8475071Y-11856214D01*
X8775071Y-11856214D02*
X8603643Y-11856214D01*
X8689357Y-11856214D02*
X8689357Y-11556214D01*
X8660786Y-11599071D01*
X8632214Y-11627643D01*
X8603643Y-11641929D01*
X8889357Y-11584786D02*
X8903643Y-11570500D01*
X8932214Y-11556214D01*
X9003643Y-11556214D01*
X9032214Y-11570500D01*
X9046500Y-11584786D01*
X9060786Y-11613357D01*
X9060786Y-11641929D01*
X9046500Y-11684786D01*
X8875071Y-11856214D01*
X9060786Y-11856214D01*
X9317928Y-11556214D02*
X9260786Y-11556214D01*
X9232214Y-11570500D01*
X9217928Y-11584786D01*
X9189357Y-11627643D01*
X9175071Y-11684786D01*
X9175071Y-11799071D01*
X9189357Y-11827643D01*
X9203643Y-11841929D01*
X9232214Y-11856214D01*
X9289357Y-11856214D01*
X9317928Y-11841929D01*
X9332214Y-11827643D01*
X9346500Y-11799071D01*
X9346500Y-11727643D01*
X9332214Y-11699071D01*
X9317928Y-11684786D01*
X9289357Y-11670500D01*
X9232214Y-11670500D01*
X9203643Y-11684786D01*
X9189357Y-11699071D01*
X9175071Y-11727643D01*
X9460786Y-11556214D02*
X9460786Y-11613357D01*
X9575071Y-11556214D02*
X9575071Y-11613357D01*
X10017928Y-11970500D02*
X10003643Y-11956214D01*
X9975071Y-11913357D01*
X9960786Y-11884786D01*
X9946500Y-11841929D01*
X9932214Y-11770500D01*
X9932214Y-11713357D01*
X9946500Y-11641929D01*
X9960786Y-11599071D01*
X9975071Y-11570500D01*
X10003643Y-11527643D01*
X10017928Y-11513357D01*
X10260786Y-11656214D02*
X10260786Y-11856214D01*
X10189357Y-11541929D02*
X10117928Y-11756214D01*
X10303643Y-11756214D01*
X10646500Y-11856214D02*
X10646500Y-11556214D01*
X10775071Y-11856214D02*
X10775071Y-11699071D01*
X10760786Y-11670500D01*
X10732214Y-11656214D01*
X10689357Y-11656214D01*
X10660786Y-11670500D01*
X10646500Y-11684786D01*
X10960786Y-11856214D02*
X10932214Y-11841929D01*
X10917928Y-11827643D01*
X10903643Y-11799071D01*
X10903643Y-11713357D01*
X10917928Y-11684786D01*
X10932214Y-11670500D01*
X10960786Y-11656214D01*
X11003643Y-11656214D01*
X11032214Y-11670500D01*
X11046500Y-11684786D01*
X11060786Y-11713357D01*
X11060786Y-11799071D01*
X11046500Y-11827643D01*
X11032214Y-11841929D01*
X11003643Y-11856214D01*
X10960786Y-11856214D01*
X11232214Y-11856214D02*
X11203643Y-11841929D01*
X11189357Y-11813357D01*
X11189357Y-11556214D01*
X11460786Y-11841929D02*
X11432214Y-11856214D01*
X11375071Y-11856214D01*
X11346500Y-11841929D01*
X11332214Y-11813357D01*
X11332214Y-11699071D01*
X11346500Y-11670500D01*
X11375071Y-11656214D01*
X11432214Y-11656214D01*
X11460786Y-11670500D01*
X11475071Y-11699071D01*
X11475071Y-11727643D01*
X11332214Y-11756214D01*
X11589357Y-11841929D02*
X11617928Y-11856214D01*
X11675071Y-11856214D01*
X11703643Y-11841929D01*
X11717928Y-11813357D01*
X11717928Y-11799071D01*
X11703643Y-11770500D01*
X11675071Y-11756214D01*
X11632214Y-11756214D01*
X11603643Y-11741929D01*
X11589357Y-11713357D01*
X11589357Y-11699071D01*
X11603643Y-11670500D01*
X11632214Y-11656214D01*
X11675071Y-11656214D01*
X11703643Y-11670500D01*
X11817928Y-11970500D02*
X11832214Y-11956214D01*
X11860786Y-11913357D01*
X11875071Y-11884786D01*
X11889357Y-11841929D01*
X11903643Y-11770500D01*
X11903643Y-11713357D01*
X11889357Y-11641929D01*
X11875071Y-11599071D01*
X11860786Y-11570500D01*
X11832214Y-11527643D01*
X11817928Y-11513357D01*
M02*
