G04 #@! TF.GenerationSoftware,KiCad,Pcbnew,(5.1.9-0-10_14)*
G04 #@! TF.CreationDate,2021-05-14T14:16:07+02:00*
G04 #@! TF.ProjectId,PreAmp_SMPS_Filter,50726541-6d70-45f5-934d-50535f46696c,1.0*
G04 #@! TF.SameCoordinates,Original*
G04 #@! TF.FileFunction,Legend,Top*
G04 #@! TF.FilePolarity,Positive*
%FSLAX46Y46*%
G04 Gerber Fmt 4.6, Leading zero omitted, Abs format (unit mm)*
G04 Created by KiCad (PCBNEW (5.1.9-0-10_14)) date 2021-05-14 14:16:07*
%MOMM*%
%LPD*%
G01*
G04 APERTURE LIST*
%ADD10C,0.150000*%
%ADD11C,0.120000*%
%ADD12C,0.200000*%
%ADD13C,0.254000*%
%ADD14C,2.000000*%
%ADD15R,2.000000X2.000000*%
%ADD16C,6.400000*%
%ADD17C,0.800000*%
%ADD18C,2.600000*%
%ADD19R,2.600000X2.600000*%
%ADD20R,1.575000X1.575000*%
%ADD21C,1.575000*%
%ADD22C,3.000000*%
%ADD23O,3.000000X3.000000*%
%ADD24C,1.600000*%
%ADD25O,1.600000X1.600000*%
G04 APERTURE END LIST*
D10*
X83621904Y-64841428D02*
X84383809Y-64841428D01*
X84860000Y-64841428D02*
X85621904Y-64841428D01*
X86860000Y-65222380D02*
X86860000Y-64222380D01*
X87240952Y-64222380D01*
X87336190Y-64270000D01*
X87383809Y-64317619D01*
X87431428Y-64412857D01*
X87431428Y-64555714D01*
X87383809Y-64650952D01*
X87336190Y-64698571D01*
X87240952Y-64746190D01*
X86860000Y-64746190D01*
X88002857Y-65222380D02*
X87907619Y-65174761D01*
X87860000Y-65127142D01*
X87812380Y-65031904D01*
X87812380Y-64746190D01*
X87860000Y-64650952D01*
X87907619Y-64603333D01*
X88002857Y-64555714D01*
X88145714Y-64555714D01*
X88240952Y-64603333D01*
X88288571Y-64650952D01*
X88336190Y-64746190D01*
X88336190Y-65031904D01*
X88288571Y-65127142D01*
X88240952Y-65174761D01*
X88145714Y-65222380D01*
X88002857Y-65222380D01*
X88717142Y-65174761D02*
X88812380Y-65222380D01*
X89002857Y-65222380D01*
X89098095Y-65174761D01*
X89145714Y-65079523D01*
X89145714Y-65031904D01*
X89098095Y-64936666D01*
X89002857Y-64889047D01*
X88860000Y-64889047D01*
X88764761Y-64841428D01*
X88717142Y-64746190D01*
X88717142Y-64698571D01*
X88764761Y-64603333D01*
X88860000Y-64555714D01*
X89002857Y-64555714D01*
X89098095Y-64603333D01*
X83574285Y-59761428D02*
X84336190Y-59761428D01*
X84812380Y-59761428D02*
X85574285Y-59761428D01*
X86812380Y-60142380D02*
X86812380Y-59142380D01*
X87383809Y-60142380D01*
X87383809Y-59142380D01*
X88240952Y-60094761D02*
X88145714Y-60142380D01*
X87955238Y-60142380D01*
X87860000Y-60094761D01*
X87812380Y-59999523D01*
X87812380Y-59618571D01*
X87860000Y-59523333D01*
X87955238Y-59475714D01*
X88145714Y-59475714D01*
X88240952Y-59523333D01*
X88288571Y-59618571D01*
X88288571Y-59713809D01*
X87812380Y-59809047D01*
X89145714Y-59475714D02*
X89145714Y-60285238D01*
X89098095Y-60380476D01*
X89050476Y-60428095D01*
X88955238Y-60475714D01*
X88812380Y-60475714D01*
X88717142Y-60428095D01*
X89145714Y-60094761D02*
X89050476Y-60142380D01*
X88860000Y-60142380D01*
X88764761Y-60094761D01*
X88717142Y-60047142D01*
X88669523Y-59951904D01*
X88669523Y-59666190D01*
X88717142Y-59570952D01*
X88764761Y-59523333D01*
X88860000Y-59475714D01*
X89050476Y-59475714D01*
X89145714Y-59523333D01*
X83574285Y-71191428D02*
X84336190Y-71191428D01*
X84812380Y-71191428D02*
X85574285Y-71191428D01*
X86812380Y-71572380D02*
X86812380Y-70572380D01*
X87383809Y-71572380D01*
X87383809Y-70572380D01*
X88240952Y-71524761D02*
X88145714Y-71572380D01*
X87955238Y-71572380D01*
X87860000Y-71524761D01*
X87812380Y-71429523D01*
X87812380Y-71048571D01*
X87860000Y-70953333D01*
X87955238Y-70905714D01*
X88145714Y-70905714D01*
X88240952Y-70953333D01*
X88288571Y-71048571D01*
X88288571Y-71143809D01*
X87812380Y-71239047D01*
X89145714Y-70905714D02*
X89145714Y-71715238D01*
X89098095Y-71810476D01*
X89050476Y-71858095D01*
X88955238Y-71905714D01*
X88812380Y-71905714D01*
X88717142Y-71858095D01*
X89145714Y-71524761D02*
X89050476Y-71572380D01*
X88860000Y-71572380D01*
X88764761Y-71524761D01*
X88717142Y-71477142D01*
X88669523Y-71381904D01*
X88669523Y-71096190D01*
X88717142Y-71000952D01*
X88764761Y-70953333D01*
X88860000Y-70905714D01*
X89050476Y-70905714D01*
X89145714Y-70953333D01*
X83621904Y-76271428D02*
X84383809Y-76271428D01*
X84860000Y-76271428D02*
X85621904Y-76271428D01*
X86860000Y-76652380D02*
X86860000Y-75652380D01*
X87240952Y-75652380D01*
X87336190Y-75700000D01*
X87383809Y-75747619D01*
X87431428Y-75842857D01*
X87431428Y-75985714D01*
X87383809Y-76080952D01*
X87336190Y-76128571D01*
X87240952Y-76176190D01*
X86860000Y-76176190D01*
X88002857Y-76652380D02*
X87907619Y-76604761D01*
X87860000Y-76557142D01*
X87812380Y-76461904D01*
X87812380Y-76176190D01*
X87860000Y-76080952D01*
X87907619Y-76033333D01*
X88002857Y-75985714D01*
X88145714Y-75985714D01*
X88240952Y-76033333D01*
X88288571Y-76080952D01*
X88336190Y-76176190D01*
X88336190Y-76461904D01*
X88288571Y-76557142D01*
X88240952Y-76604761D01*
X88145714Y-76652380D01*
X88002857Y-76652380D01*
X88717142Y-76604761D02*
X88812380Y-76652380D01*
X89002857Y-76652380D01*
X89098095Y-76604761D01*
X89145714Y-76509523D01*
X89145714Y-76461904D01*
X89098095Y-76366666D01*
X89002857Y-76319047D01*
X88860000Y-76319047D01*
X88764761Y-76271428D01*
X88717142Y-76176190D01*
X88717142Y-76128571D01*
X88764761Y-76033333D01*
X88860000Y-75985714D01*
X89002857Y-75985714D01*
X89098095Y-76033333D01*
D11*
X83820000Y-57150000D02*
X83820000Y-67310000D01*
X105410000Y-57150000D02*
X83820000Y-57150000D01*
X105410000Y-67310000D02*
X105410000Y-57150000D01*
X83820000Y-67310000D02*
X105410000Y-67310000D01*
X105410000Y-68580000D02*
X83820000Y-68580000D01*
X105410000Y-78740000D02*
X105410000Y-68580000D01*
X83820000Y-78740000D02*
X105410000Y-78740000D01*
X83820000Y-68580000D02*
X83820000Y-78740000D01*
X82550000Y-62230000D02*
X83820000Y-62230000D01*
X78405000Y-79179646D02*
X78405000Y-78179646D01*
X77905000Y-78679646D02*
X78905000Y-78679646D01*
X78405000Y-67749646D02*
X78405000Y-66749646D01*
X77905000Y-67249646D02*
X78905000Y-67249646D01*
X106030000Y-49530000D02*
G75*
G03*
X106030000Y-49530000I-4470000J0D01*
G01*
X58600000Y-46730000D02*
X58600000Y-47230000D01*
X59340000Y-46730000D02*
X58600000Y-46730000D01*
X62477000Y-53303000D02*
X62431000Y-53256000D01*
X64775000Y-55600000D02*
X64739000Y-55565000D01*
X62261000Y-53496000D02*
X62226000Y-53461000D01*
X64569000Y-55805000D02*
X64523000Y-55758000D01*
X68761000Y-57090000D02*
X58840000Y-57090000D01*
X68761000Y-46970000D02*
X58840000Y-46970000D01*
X58840000Y-46970000D02*
X58840000Y-57090000D01*
X68761000Y-46970000D02*
X68761000Y-57090000D01*
X65801000Y-46970000D02*
X65801000Y-57090000D01*
X60900000Y-46970000D02*
X60900000Y-57090000D01*
X59400000Y-46970000D02*
X59400000Y-57090000D01*
X65180000Y-54530000D02*
G75*
G03*
X65180000Y-54530000I-1680000J0D01*
G01*
X61965244Y-50213318D02*
G75*
G02*
X61820000Y-49530000I1534756J683318D01*
G01*
X64183042Y-51065426D02*
G75*
G02*
X62816000Y-51065000I-683042J1535426D01*
G01*
X65035426Y-48846958D02*
G75*
G02*
X65035000Y-50214000I-1535426J-683042D01*
G01*
X62816958Y-47994574D02*
G75*
G02*
X64184000Y-47995000I683042J-1535426D01*
G01*
X61819747Y-49558805D02*
G75*
G02*
X61965000Y-48846000I1680253J28805D01*
G01*
D12*
X77750000Y-64620000D02*
X77750000Y-71320000D01*
X77750000Y-71320000D02*
X74650000Y-71320000D01*
X74650000Y-71320000D02*
X74650000Y-64620000D01*
X74650000Y-64620000D02*
X77750000Y-64620000D01*
X76200000Y-64620000D02*
X77750000Y-66170000D01*
X76200000Y-59558000D02*
X76200000Y-64620000D01*
X76200000Y-71320000D02*
X76200000Y-76382000D01*
D11*
X65180000Y-69770000D02*
G75*
G03*
X65180000Y-69770000I-1680000J0D01*
G01*
X59400000Y-62210000D02*
X59400000Y-72330000D01*
X60900000Y-62210000D02*
X60900000Y-72330000D01*
X65801000Y-62210000D02*
X65801000Y-72330000D01*
X68761000Y-62210000D02*
X68761000Y-72330000D01*
X58840000Y-62210000D02*
X58840000Y-72330000D01*
X68761000Y-62210000D02*
X58840000Y-62210000D01*
X68761000Y-72330000D02*
X58840000Y-72330000D01*
X64569000Y-71045000D02*
X64523000Y-70998000D01*
X62261000Y-68736000D02*
X62226000Y-68701000D01*
X64775000Y-70840000D02*
X64739000Y-70805000D01*
X62477000Y-68543000D02*
X62431000Y-68496000D01*
X59340000Y-61970000D02*
X58600000Y-61970000D01*
X58600000Y-61970000D02*
X58600000Y-62470000D01*
X61819747Y-64798805D02*
G75*
G02*
X61965000Y-64086000I1680253J28805D01*
G01*
X62816958Y-63234574D02*
G75*
G02*
X64184000Y-63235000I683042J-1535426D01*
G01*
X65035426Y-64086958D02*
G75*
G02*
X65035000Y-65454000I-1535426J-683042D01*
G01*
X64183042Y-66305426D02*
G75*
G02*
X62816000Y-66305000I-683042J1535426D01*
G01*
X61965244Y-65453318D02*
G75*
G02*
X61820000Y-64770000I1534756J683318D01*
G01*
X95870000Y-49530000D02*
G75*
G03*
X95870000Y-49530000I-4470000J0D01*
G01*
X75550000Y-40370000D02*
X75550000Y-38450000D01*
X83230000Y-40370000D02*
X83230000Y-38450000D01*
X83230000Y-38450000D02*
X75550000Y-38450000D01*
X83230000Y-38570000D02*
X75550000Y-38570000D01*
X83230000Y-38690000D02*
X75550000Y-38690000D01*
X83230000Y-38810000D02*
X75550000Y-38810000D01*
X83230000Y-38930000D02*
X75550000Y-38930000D01*
X83230000Y-39050000D02*
X75550000Y-39050000D01*
X83230000Y-39170000D02*
X75550000Y-39170000D01*
X83230000Y-39290000D02*
X75550000Y-39290000D01*
X83230000Y-39410000D02*
X75550000Y-39410000D01*
X83230000Y-39530000D02*
X75550000Y-39530000D01*
X83230000Y-39650000D02*
X75550000Y-39650000D01*
X83230000Y-39770000D02*
X75550000Y-39770000D01*
X83230000Y-39890000D02*
X75550000Y-39890000D01*
X83230000Y-40010000D02*
X75550000Y-40010000D01*
X83230000Y-40130000D02*
X75550000Y-40130000D01*
X83230000Y-40250000D02*
X75550000Y-40250000D01*
X83230000Y-40370000D02*
X75550000Y-40370000D01*
X73070000Y-36850000D02*
X73070000Y-37630000D01*
X85710000Y-36850000D02*
X73070000Y-36850000D01*
X85710000Y-37630000D02*
X85710000Y-36850000D01*
X73070000Y-41890000D02*
X73070000Y-41110000D01*
X85710000Y-41890000D02*
X73070000Y-41890000D01*
X85710000Y-41110000D02*
X85710000Y-41890000D01*
X82780000Y-46990000D02*
X82010000Y-46990000D01*
X74700000Y-46990000D02*
X75470000Y-46990000D01*
X82010000Y-45620000D02*
X75470000Y-45620000D01*
X82010000Y-48360000D02*
X82010000Y-45620000D01*
X75470000Y-48360000D02*
X82010000Y-48360000D01*
X75470000Y-45620000D02*
X75470000Y-48360000D01*
X104760000Y-41110000D02*
X104760000Y-41890000D01*
X104760000Y-41890000D02*
X92120000Y-41890000D01*
X92120000Y-41890000D02*
X92120000Y-41110000D01*
X104760000Y-37630000D02*
X104760000Y-36850000D01*
X104760000Y-36850000D02*
X92120000Y-36850000D01*
X92120000Y-36850000D02*
X92120000Y-37630000D01*
X102280000Y-40370000D02*
X94600000Y-40370000D01*
X102280000Y-40250000D02*
X94600000Y-40250000D01*
X102280000Y-40130000D02*
X94600000Y-40130000D01*
X102280000Y-40010000D02*
X94600000Y-40010000D01*
X102280000Y-39890000D02*
X94600000Y-39890000D01*
X102280000Y-39770000D02*
X94600000Y-39770000D01*
X102280000Y-39650000D02*
X94600000Y-39650000D01*
X102280000Y-39530000D02*
X94600000Y-39530000D01*
X102280000Y-39410000D02*
X94600000Y-39410000D01*
X102280000Y-39290000D02*
X94600000Y-39290000D01*
X102280000Y-39170000D02*
X94600000Y-39170000D01*
X102280000Y-39050000D02*
X94600000Y-39050000D01*
X102280000Y-38930000D02*
X94600000Y-38930000D01*
X102280000Y-38810000D02*
X94600000Y-38810000D01*
X102280000Y-38690000D02*
X94600000Y-38690000D01*
X102280000Y-38570000D02*
X94600000Y-38570000D01*
X102280000Y-38450000D02*
X94600000Y-38450000D01*
X102280000Y-40370000D02*
X102280000Y-38450000D01*
X94600000Y-40370000D02*
X94600000Y-38450000D01*
X75470000Y-51970000D02*
X75470000Y-54710000D01*
X75470000Y-54710000D02*
X82010000Y-54710000D01*
X82010000Y-54710000D02*
X82010000Y-51970000D01*
X82010000Y-51970000D02*
X75470000Y-51970000D01*
X74700000Y-53340000D02*
X75470000Y-53340000D01*
X82780000Y-53340000D02*
X82010000Y-53340000D01*
D10*
X84177142Y-73826666D02*
X84224761Y-73874285D01*
X84272380Y-74017142D01*
X84272380Y-74112380D01*
X84224761Y-74255238D01*
X84129523Y-74350476D01*
X84034285Y-74398095D01*
X83843809Y-74445714D01*
X83700952Y-74445714D01*
X83510476Y-74398095D01*
X83415238Y-74350476D01*
X83320000Y-74255238D01*
X83272380Y-74112380D01*
X83272380Y-74017142D01*
X83320000Y-73874285D01*
X83367619Y-73826666D01*
X83367619Y-73445714D02*
X83320000Y-73398095D01*
X83272380Y-73302857D01*
X83272380Y-73064761D01*
X83320000Y-72969523D01*
X83367619Y-72921904D01*
X83462857Y-72874285D01*
X83558095Y-72874285D01*
X83700952Y-72921904D01*
X84272380Y-73493333D01*
X84272380Y-72874285D01*
X84177142Y-62396666D02*
X84224761Y-62444285D01*
X84272380Y-62587142D01*
X84272380Y-62682380D01*
X84224761Y-62825238D01*
X84129523Y-62920476D01*
X84034285Y-62968095D01*
X83843809Y-63015714D01*
X83700952Y-63015714D01*
X83510476Y-62968095D01*
X83415238Y-62920476D01*
X83320000Y-62825238D01*
X83272380Y-62682380D01*
X83272380Y-62587142D01*
X83320000Y-62444285D01*
X83367619Y-62396666D01*
X84272380Y-61444285D02*
X84272380Y-62015714D01*
X84272380Y-61730000D02*
X83272380Y-61730000D01*
X83415238Y-61825238D01*
X83510476Y-61920476D01*
X83558095Y-62015714D01*
X101393333Y-44382380D02*
X100917142Y-44382380D01*
X100917142Y-43382380D01*
X101679047Y-43477619D02*
X101726666Y-43430000D01*
X101821904Y-43382380D01*
X102060000Y-43382380D01*
X102155238Y-43430000D01*
X102202857Y-43477619D01*
X102250476Y-43572857D01*
X102250476Y-43668095D01*
X102202857Y-43810952D01*
X101631428Y-44382380D01*
X102250476Y-44382380D01*
X69212380Y-52363333D02*
X69926666Y-52363333D01*
X70069523Y-52410952D01*
X70164761Y-52506190D01*
X70212380Y-52649047D01*
X70212380Y-52744285D01*
X70212380Y-51363333D02*
X70212380Y-51934761D01*
X70212380Y-51649047D02*
X69212380Y-51649047D01*
X69355238Y-51744285D01*
X69450476Y-51839523D01*
X69498095Y-51934761D01*
D13*
X76774523Y-59357380D02*
X75504523Y-59357380D01*
X75504523Y-59055000D01*
X75565000Y-58873571D01*
X75685952Y-58752619D01*
X75806904Y-58692142D01*
X76048809Y-58631666D01*
X76230238Y-58631666D01*
X76472142Y-58692142D01*
X76593095Y-58752619D01*
X76714047Y-58873571D01*
X76774523Y-59055000D01*
X76774523Y-59357380D01*
X76774523Y-57422142D02*
X76774523Y-58147857D01*
X76774523Y-57785000D02*
X75504523Y-57785000D01*
X75685952Y-57905952D01*
X75806904Y-58026904D01*
X75867380Y-58147857D01*
D10*
X69212380Y-67603333D02*
X69926666Y-67603333D01*
X70069523Y-67650952D01*
X70164761Y-67746190D01*
X70212380Y-67889047D01*
X70212380Y-67984285D01*
X69307619Y-67174761D02*
X69260000Y-67127142D01*
X69212380Y-67031904D01*
X69212380Y-66793809D01*
X69260000Y-66698571D01*
X69307619Y-66650952D01*
X69402857Y-66603333D01*
X69498095Y-66603333D01*
X69640952Y-66650952D01*
X70212380Y-67222380D01*
X70212380Y-66603333D01*
X91233333Y-44382380D02*
X90757142Y-44382380D01*
X90757142Y-43382380D01*
X92090476Y-44382380D02*
X91519047Y-44382380D01*
X91804761Y-44382380D02*
X91804761Y-43382380D01*
X91709523Y-43525238D01*
X91614285Y-43620476D01*
X91519047Y-43668095D01*
X79223333Y-43342380D02*
X78890000Y-42866190D01*
X78651904Y-43342380D02*
X78651904Y-42342380D01*
X79032857Y-42342380D01*
X79128095Y-42390000D01*
X79175714Y-42437619D01*
X79223333Y-42532857D01*
X79223333Y-42675714D01*
X79175714Y-42770952D01*
X79128095Y-42818571D01*
X79032857Y-42866190D01*
X78651904Y-42866190D01*
X80175714Y-43342380D02*
X79604285Y-43342380D01*
X79890000Y-43342380D02*
X79890000Y-42342380D01*
X79794761Y-42485238D01*
X79699523Y-42580476D01*
X79604285Y-42628095D01*
X78573333Y-45072380D02*
X78240000Y-44596190D01*
X78001904Y-45072380D02*
X78001904Y-44072380D01*
X78382857Y-44072380D01*
X78478095Y-44120000D01*
X78525714Y-44167619D01*
X78573333Y-44262857D01*
X78573333Y-44405714D01*
X78525714Y-44500952D01*
X78478095Y-44548571D01*
X78382857Y-44596190D01*
X78001904Y-44596190D01*
X78954285Y-44167619D02*
X79001904Y-44120000D01*
X79097142Y-44072380D01*
X79335238Y-44072380D01*
X79430476Y-44120000D01*
X79478095Y-44167619D01*
X79525714Y-44262857D01*
X79525714Y-44358095D01*
X79478095Y-44500952D01*
X78906666Y-45072380D01*
X79525714Y-45072380D01*
X98273333Y-43342380D02*
X97940000Y-42866190D01*
X97701904Y-43342380D02*
X97701904Y-42342380D01*
X98082857Y-42342380D01*
X98178095Y-42390000D01*
X98225714Y-42437619D01*
X98273333Y-42532857D01*
X98273333Y-42675714D01*
X98225714Y-42770952D01*
X98178095Y-42818571D01*
X98082857Y-42866190D01*
X97701904Y-42866190D01*
X98606666Y-42342380D02*
X99225714Y-42342380D01*
X98892380Y-42723333D01*
X99035238Y-42723333D01*
X99130476Y-42770952D01*
X99178095Y-42818571D01*
X99225714Y-42913809D01*
X99225714Y-43151904D01*
X99178095Y-43247142D01*
X99130476Y-43294761D01*
X99035238Y-43342380D01*
X98749523Y-43342380D01*
X98654285Y-43294761D01*
X98606666Y-43247142D01*
X78573333Y-51422380D02*
X78240000Y-50946190D01*
X78001904Y-51422380D02*
X78001904Y-50422380D01*
X78382857Y-50422380D01*
X78478095Y-50470000D01*
X78525714Y-50517619D01*
X78573333Y-50612857D01*
X78573333Y-50755714D01*
X78525714Y-50850952D01*
X78478095Y-50898571D01*
X78382857Y-50946190D01*
X78001904Y-50946190D01*
X79430476Y-50755714D02*
X79430476Y-51422380D01*
X79192380Y-50374761D02*
X78954285Y-51089047D01*
X79573333Y-51089047D01*
%LPC*%
D14*
X81280000Y-71200000D03*
D15*
X81280000Y-76200000D03*
D14*
X81280000Y-59770000D03*
D15*
X81280000Y-64770000D03*
D16*
X110490000Y-38100000D03*
D17*
X112890000Y-38100000D03*
X112187056Y-39797056D03*
X110490000Y-40500000D03*
X108792944Y-39797056D03*
X108090000Y-38100000D03*
X108792944Y-36402944D03*
X110490000Y-35700000D03*
X112187056Y-36402944D03*
D16*
X58420000Y-38100000D03*
D17*
X60820000Y-38100000D03*
X60117056Y-39797056D03*
X58420000Y-40500000D03*
X56722944Y-39797056D03*
X56020000Y-38100000D03*
X56722944Y-36402944D03*
X58420000Y-35700000D03*
X60117056Y-36402944D03*
D16*
X58420000Y-78740000D03*
D17*
X60820000Y-78740000D03*
X60117056Y-80437056D03*
X58420000Y-81140000D03*
X56722944Y-80437056D03*
X56020000Y-78740000D03*
X56722944Y-77042944D03*
X58420000Y-76340000D03*
X60117056Y-77042944D03*
X112187056Y-77042944D03*
X110490000Y-76340000D03*
X108792944Y-77042944D03*
X108090000Y-78740000D03*
X108792944Y-80437056D03*
X110490000Y-81140000D03*
X112187056Y-80437056D03*
X112890000Y-78740000D03*
D16*
X110490000Y-78740000D03*
D18*
X104060000Y-49530000D03*
X99060000Y-49530000D03*
D19*
X63500000Y-49530000D03*
D18*
X63500000Y-54530000D03*
D20*
X76200000Y-58420000D03*
D21*
X76200000Y-77520000D03*
D18*
X63500000Y-69770000D03*
D19*
X63500000Y-64770000D03*
D18*
X88900000Y-49530000D03*
X93900000Y-49530000D03*
D22*
X85090000Y-39370000D03*
D23*
X73690000Y-39370000D03*
D24*
X73660000Y-46990000D03*
D25*
X83820000Y-46990000D03*
D23*
X92740000Y-39370000D03*
D22*
X104140000Y-39370000D03*
D25*
X83820000Y-53340000D03*
D24*
X73660000Y-53340000D03*
M02*
