%FSLAX45Y45*%
G04 Gerber Fmt 4.5, Leading zero omitted, Abs format (unit mm)*
G04 Created by KiCad (PCBNEW (5.1.9-0-10_14)) date 2021-05-14 14:17:34*
%MOMM*%
%LPD*%
G01*
G04 APERTURE LIST*
%TA.AperFunction,Profile*%
%ADD10C,0.050000*%
%TD*%
%ADD11C,0.200000*%
%ADD12C,0.300000*%
G04 APERTURE END LIST*
D10*
X5334000Y-8382000D02*
X5334000Y-3302000D01*
X11557000Y-8382000D02*
X5334000Y-8382000D01*
X11557000Y-3302000D02*
X11557000Y-8382000D01*
X5334000Y-3302000D02*
X11557000Y-3302000D01*
D11*
D12*
X5617928Y-8850214D02*
X5617928Y-8550214D01*
X5689357Y-8550214D01*
X5732214Y-8564500D01*
X5760786Y-8593072D01*
X5775071Y-8621643D01*
X5789357Y-8678786D01*
X5789357Y-8721643D01*
X5775071Y-8778786D01*
X5760786Y-8807357D01*
X5732214Y-8835929D01*
X5689357Y-8850214D01*
X5617928Y-8850214D01*
X5917928Y-8850214D02*
X5917928Y-8650214D01*
X5917928Y-8707357D02*
X5932214Y-8678786D01*
X5946500Y-8664500D01*
X5975071Y-8650214D01*
X6003643Y-8650214D01*
X6103643Y-8850214D02*
X6103643Y-8650214D01*
X6103643Y-8550214D02*
X6089357Y-8564500D01*
X6103643Y-8578786D01*
X6117928Y-8564500D01*
X6103643Y-8550214D01*
X6103643Y-8578786D01*
X6289357Y-8850214D02*
X6260786Y-8835929D01*
X6246500Y-8807357D01*
X6246500Y-8550214D01*
X6446500Y-8850214D02*
X6417928Y-8835929D01*
X6403643Y-8807357D01*
X6403643Y-8550214D01*
X6789357Y-8850214D02*
X6789357Y-8550214D01*
X6889357Y-8764500D01*
X6989357Y-8550214D01*
X6989357Y-8850214D01*
X7260786Y-8850214D02*
X7260786Y-8693072D01*
X7246500Y-8664500D01*
X7217928Y-8650214D01*
X7160786Y-8650214D01*
X7132214Y-8664500D01*
X7260786Y-8835929D02*
X7232214Y-8850214D01*
X7160786Y-8850214D01*
X7132214Y-8835929D01*
X7117928Y-8807357D01*
X7117928Y-8778786D01*
X7132214Y-8750214D01*
X7160786Y-8735929D01*
X7232214Y-8735929D01*
X7260786Y-8721643D01*
X7403643Y-8650214D02*
X7403643Y-8950214D01*
X7403643Y-8664500D02*
X7432214Y-8650214D01*
X7489357Y-8650214D01*
X7517928Y-8664500D01*
X7532214Y-8678786D01*
X7546500Y-8707357D01*
X7546500Y-8793072D01*
X7532214Y-8821643D01*
X7517928Y-8835929D01*
X7489357Y-8850214D01*
X7432214Y-8850214D01*
X7403643Y-8835929D01*
X7675071Y-8821643D02*
X7689357Y-8835929D01*
X7675071Y-8850214D01*
X7660786Y-8835929D01*
X7675071Y-8821643D01*
X7675071Y-8850214D01*
X7675071Y-8664500D02*
X7689357Y-8678786D01*
X7675071Y-8693072D01*
X7660786Y-8678786D01*
X7675071Y-8664500D01*
X7675071Y-8693072D01*
M02*
